<?xml version="1.0" encoding="utf-8"?>
<!-- Generator: Adobe Illustrator 25.1.0, SVG Export Plug-In . SVG Version: 6.00 Build 0)  -->
<svg version="1.1" id="Layer_1" xmlns="http://www.w3.org/2000/svg" xmlns:xlink="http://www.w3.org/1999/xlink" x="0px" y="0px"
	 viewBox="0 0 969.2 931.1" style="enable-background:new 0 0 969.2 931.1;" xml:space="preserve">
<style type="text/css">
	.st0{fill:#BE1E2D;}
	.st1{fill:#00A651;}
	.st2{fill:#2E3192;}
	.st3{fill:#F1F2F2;}
	.st4{fill:none;stroke:#231F20;stroke-width:15;stroke-miterlimit:10;}
</style>
<path class="st0" d="M209.7,6.2C155.2,6.2,111,50.4,111,105s44.2,98.7,98.7,98.7c54.5,0,98.7-44.2,98.7-98.7
	C308.5,50.5,264.3,6.3,209.7,6.2C209.8,6.2,209.8,6.2,209.7,6.2z M209.7,192.3c-48.2,0-87.3-39.1-87.3-87.3s39.1-87.3,87.3-87.3
	s87.3,39.1,87.3,87.3c0,0,0,0,0,0C297.1,153.2,258,192.3,209.7,192.3z"/>
<circle class="st0" cx="209.7" cy="105" r="22.5"/>
<circle class="st0" cx="185.4" cy="35.1" r="7.5"/>
<circle class="st0" cx="273.7" cy="91.3" r="13"/>
<circle class="st0" cx="169.1" cy="168.6" r="6.2"/>
<circle class="st0" cx="152.7" cy="100.6" r="8.8"/>
<circle class="st0" cx="238.7" cy="156.1" r="5.9"/>
<circle class="st0" cx="236" cy="87.5" r="3.2"/>
<path class="st0" d="M247.4,96.8c-0.3,0.2-0.4,0.6-0.4,1c0.6,3.4,0.8,6.9,0.5,10.3c-0.3,4.2-1.3,8.2-3.1,12
	c-1.1,2.5-2.5,4.9-4.1,7.1c-0.7,0.9-0.5,2.2,0.4,3c1.8,1.5,3.6,2.9,5.5,4.1c0.4,0.3,1.1,0.2,1.4-0.2c2.2-2.9,4.1-6.1,5.6-9.4
	c2.4-5.4,3.8-11.2,4.2-17.1c0.2-3.6-0.1-7.2-0.7-10.8c-0.2-1.1-1.1-1.9-2.2-1.8C252.2,95.1,249.1,95.4,247.4,96.8z"/>
<path class="st0" d="M232,72.8c1.5-1.8,2.7-3.8,3.5-6.1c0.4-1,0-2.1-0.9-2.7c-1.7-1-3.4-1.9-5.2-2.7c-1.6-0.7-3.2-1.3-4.9-1.9
	c-0.3-0.1-0.7-0.3-0.9-0.6c-1.8-1.9-1.9-4.7,3.9-14.1c0.2-0.4,0.7-0.6,1.1-0.5c1.8,0.5,3.7,1.1,5.4,1.9c3.3,1.3,6.4,2.9,9.4,4.8
	c3.8,2.4,7.4,5.2,10.6,8.4c2,1.9,3.9,4,5.6,6.1c0.3,0.3,0.8,0.6,1.2,0.6c3,0,5.7-1.6,7.2-4.2c0.3-0.7,0.2-1.6-0.3-2.2
	c-2.1-2.9-4.5-5.5-7.1-8c-4.2-4.1-8.8-7.6-13.9-10.5c-4.9-3-10.2-5.2-15.7-6.7c-5.1-1.8-10.4-2.8-15.8-3c-6.1-0.2-8.6-0.2-11.1,0.2
	c-0.8,0.2-1.5,0.7-1.7,1.5c-0.4,1.1-0.4,2.3-0.3,3.5c0.5,2.7,2.8,4.7,5.6,4.7c2.6-0.1,5.1,0,7.7,0.2c2.5,0.9,6.8,1.3,1.1,14.8
	c-0.3,0.6-0.9,1-1.6,0.9c-2.9-0.4-5.9-0.4-8.9-0.1c-4.3,0.3-8.5,1.3-12.6,2.7c-4.4,1.5-8.5,3.7-12.1,6.5c-2.5,1.8-4.8,3.8-6.8,6.2
	c-2.7,1.7-7.3,1.9-12.4-8.6c-0.2-0.5-0.1-1.1,0.3-1.5c1.8-2,3.7-3.9,5.8-5.6c3.9-3,5.2-3.9,7.2-5.3c0.4-0.3,0.6-0.9,0.4-1.4
	c-1.1-2.5-3-4.6-5.5-5.9c-0.8-0.4-1.7-0.3-2.4,0.2c-1.4,0.9-2.9,2-5.8,4.3c-2.8,2.3-5.3,4.9-7.7,7.6c-3.2,3.5-5.9,7.3-8.2,11.4
	c-1.4,2.2-2.6,4.6-3.5,7c0.6,2.1,5.5,6.9,8.3,5.9c1.2-3,2.8-5.9,4.5-8.7c0.2-0.3,0.5-0.5,0.8-0.5c6-0.9,8.8,4.1,11.6,8.8
	c0.2,0.3,0.2,0.6,0,0.9c-0.7,1.5-1.2,2.7-2,4.7c-0.7,1.6-1.3,3.3-1.8,5c-0.1,0.3-0.1,0.7,0.1,1c1.8,2.7,5.2,3.9,8.3,2.9
	c0.4-0.2,0.7-0.5,0.9-0.9c0.5-1.6,1.1-3.2,1.8-4.8c1.1-2.4,2.5-4.7,4.2-6.9c2.4-3.3,4.5-5.2,8.4-8.2c2.4-1.8,5-3.2,7.8-4.3
	c3.4-1.5,7-2.3,10.7-2.6c2.5-0.2,4.9-0.2,7.4,0c2.9,0.3,5.7,0.9,8.5,1.9c2.8,1,5.5,2.3,8.1,3.9C230.8,73.4,231.5,73.3,232,72.8z"/>
<path class="st0" d="M172.2,114.6c-2.2,0-4.4,0.3-6.4,1.1c-1.3,0.4-2,1.8-1.7,3.2c0.6,2.1,1.4,4.1,2.4,6c0.3,0.7,0.2,1.6-0.4,2.2
	c-7.2,6.9-9.6,7.5-13,6.1c-0.4-0.2-0.7-0.5-0.9-0.9c-1.2-2.5-2.2-5.1-3.1-7.7c-1-3.2-1.8-6.5-2.3-9.9c-0.2-1.3-1.3-2.3-2.7-2.4
	c-2.1-0.1-4.2,0.1-6.3,0.5c-0.7,0.1-1.1,0.7-1.1,1.4c0.5,4.3,1.3,8.5,2.6,12.6c1,3.3,2.2,6.5,3.8,9.6c1.6,3.3,3.4,6.5,5.5,9.4
	c1.6,2.6,3.5,5,5.5,7.3c0.3,0.4,0.9,0.5,1.3,0.3c2.2-1.1,4-2.8,5.2-4.8c0.6-0.9,0.6-2.1-0.2-3c-1.1-1.3-2.2-2.6-3.1-4.1
	c-0.2-0.4-0.2-0.9,0.1-1.2c4-4.4,6.4-6.2,10.7-7.2c1.5-0.3,3,0.2,3.9,1.5c0.8,1.1,1.7,2.2,2.7,3.2c2.6,2.8,5.5,5.3,8.6,7.4
	c4.5,2.8,9.4,5,14.5,6.3c2.9,0.8,5.8,1.2,8.8,1.2c0.4,0,0.8,0.3,1,0.7c2.8,7,2.9,11.9-0.2,14.7c-0.5,0.4-1.1,0.7-1.8,0.6
	c-2.2-0.1-5.8-0.7-8.1-1.1c-0.6-0.1-1.2,0.2-1.4,0.8c-0.5,1.4-1,2.8-1.3,4.2c-0.5,2.2,0.8,4.4,3,5l0.3,0.1c3.1,0.5,6.3,0.9,9.4,1.1
	c5.1,0.2,10.2-0.2,15.2-1.2c3-0.6,6-1.4,8.9-2.4c0.4-0.1,0.7-0.5,0.7-1c0.1-3.2-0.8-4.7-3.1-6.8c-0.9-0.8-2.1-1.1-3.2-0.8
	c-2.6,0.6-5.2,1.2-7.8,1.5c-0.4,0-0.7-0.1-0.9-0.4c-2.5-3.5-3.5-6.5-3.1-14.2c0-0.6,0.5-1.1,1.1-1.2c1.7-0.2,3.4-0.5,5.1-0.8
	c0.8-0.2,1.4-0.8,1.5-1.7c0.4-2.7-0.5-5.4-2.5-7.3c-0.3-0.3-0.7-0.4-1.1-0.4c-2.1,0.5-4.2,0.8-6.3,0.9c-2.6,0.1-5.2,0-7.8-0.3
	c-4.5-0.6-8.8-2.1-12.7-4.2c-3-1.6-5.8-3.7-8.2-6.2c-2.5-2.3-4.7-4.9-6.5-7.8c-2.6-4.2-2.7-5.5-3.8-9
	C173,114.9,172.7,114.6,172.2,114.6z"/>
<path class="st0" d="M273.1,120.7c-1.1,0.1-2.1,0.8-2.5,1.8c-2,6.4-3.3,9.7-6.6,15.2c-3.6,6.1-8.2,11.5-13.7,16
	c-0.4,0.4-0.6,1-0.4,1.5c0.9,2,2.2,3.8,3.9,5.2c1.2,1,3,1,4.2,0c7.5-6.7,11.8-12,16-19.7c2.2-4,4-8.3,5.5-12.6c1-3-0.6-6.1-3.6-7.1
	c0,0,0,0,0,0c-0.4-0.1-0.8-0.2-1.2-0.2C274.1,120.7,273.6,120.6,273.1,120.7z"/>
<path class="st1" d="M209.7,246.4c-54.5,0-98.7,44.2-98.7,98.7s44.2,98.7,98.7,98.7s98.7-44.2,98.7-98.7S264.3,246.4,209.7,246.4
	L209.7,246.4z M209.7,432.5c-48.2,0-87.3-39.1-87.3-87.3s39.1-87.3,87.3-87.3s87.3,39.1,87.3,87.3S258,432.5,209.7,432.5
	L209.7,432.5z"/>
<circle class="st1" cx="209.7" cy="345.1" r="22.5"/>
<circle class="st1" cx="185.4" cy="275.3" r="7.5"/>
<circle class="st1" cx="273.7" cy="331.4" r="13"/>
<circle class="st1" cx="169" cy="408.8" r="6.2"/>
<circle class="st1" cx="152.7" cy="340.8" r="8.8"/>
<circle class="st1" cx="238.7" cy="396.2" r="5.9"/>
<circle class="st1" cx="236" cy="327.7" r="3.2"/>
<path class="st1" d="M247.4,337c-0.3,0.2-0.4,0.6-0.4,1c0.6,3.4,0.8,6.9,0.5,10.3c-0.3,4.2-1.3,8.2-3.1,12c-1.1,2.5-2.5,4.9-4.1,7.1
	c-0.7,0.9-0.5,2.2,0.4,3c1.8,1.5,3.6,2.9,5.5,4.1c0.5,0.3,1.1,0.2,1.4-0.2c2.2-2.9,4.1-6.1,5.6-9.4c2.4-5.4,3.8-11.2,4.2-17.1
	c0.2-3.6-0.1-7.2-0.7-10.8c-0.2-1.1-1.1-1.8-2.2-1.8C252.2,335.2,249.1,335.5,247.4,337z"/>
<path class="st1" d="M231.9,313c1.5-1.8,2.7-3.8,3.5-6c0.4-1,0-2.1-0.9-2.7c-1.7-1-3.4-1.9-5.2-2.7c-1.6-0.7-3.2-1.3-4.9-1.9
	c-0.4-0.1-0.7-0.3-0.9-0.6c-1.8-1.9-1.9-4.7,3.9-14.1c0.2-0.4,0.7-0.6,1.1-0.5c1.9,0.5,3.7,1.1,5.5,1.9c3.3,1.3,6.4,2.9,9.4,4.8
	c3.8,2.4,7.4,5.2,10.6,8.4c2,2,3.9,4,5.6,6.1c0.3,0.3,0.8,0.6,1.2,0.6c3,0,5.7-1.6,7.2-4.2c0.3-0.7,0.2-1.6-0.3-2.2
	c-2.1-2.9-4.5-5.5-7.1-8c-4.2-4.1-8.8-7.6-13.9-10.5c-4.9-3-10.2-5.2-15.7-6.7c-5.1-1.8-10.4-2.8-15.8-3c-6.1-0.2-8.6-0.3-11.1,0.2
	c-0.8,0.2-1.5,0.7-1.7,1.5c-0.4,1.1-0.4,2.3-0.3,3.5c0.5,2.7,2.9,4.7,5.6,4.7c2.6-0.1,5.1,0,7.7,0.2c2.5,0.9,6.8,1.3,1.1,14.8
	c-0.3,0.6-0.9,1-1.6,0.9c-2.9-0.4-5.9-0.4-8.9-0.1c-4.3,0.3-8.5,1.2-12.6,2.7c-4.4,1.5-8.4,3.7-12.1,6.5c-2.5,1.8-4.8,3.8-6.8,6.2
	c-2.7,1.6-7.3,1.9-12.4-8.6c-0.2-0.5-0.1-1.1,0.3-1.5c1.7-2.1,3.7-3.9,5.8-5.7c3.9-3,5.2-3.9,7.2-5.3c0.4-0.3,0.6-0.9,0.4-1.4
	c-1.1-2.5-3-4.6-5.5-5.9c-0.8-0.4-1.7-0.3-2.4,0.2c-1.4,0.9-2.9,2-5.8,4.4c-6.3,5.4-11.7,11.9-15.9,19c-1.4,2.2-2.6,4.6-3.5,7
	c0.6,2.1,5.5,6.9,8.3,5.9c1.3-3,2.8-5.9,4.5-8.7c0.2-0.3,0.5-0.5,0.8-0.5c6-0.9,8.8,4.1,11.6,8.8c0.2,0.3,0.2,0.6,0,0.9
	c-0.7,1.5-1.2,2.7-2,4.7c-0.7,1.6-1.3,3.3-1.8,5c-0.1,0.4-0.1,0.7,0.1,1c1.8,2.7,5.2,3.9,8.3,2.9c0.4-0.2,0.7-0.5,0.9-0.9
	c0.5-1.6,1.1-3.2,1.8-4.8c1.1-2.4,2.6-4.7,4.2-6.9c2.4-3.3,4.5-5.2,8.4-8.2c2.4-1.8,5-3.3,7.8-4.3c3.4-1.5,7-2.3,10.7-2.5
	c2.5-0.2,4.9-0.2,7.4,0c2.9,0.3,5.7,0.9,8.5,1.9c2.8,1,5.5,2.3,8.1,3.9C230.7,313.6,231.5,313.5,231.9,313z"/>
<path class="st1" d="M172.2,354.8c-2.2,0-4.4,0.3-6.4,1.1c-1.3,0.4-2,1.8-1.7,3.1c0.6,2.1,1.4,4.1,2.4,6c0.3,0.7,0.2,1.6-0.4,2.1
	c-7.2,6.9-9.7,7.5-13,6.1c-0.4-0.2-0.7-0.5-0.9-0.9c-1.2-2.5-2.2-5.1-3.1-7.7c-1-3.2-1.8-6.5-2.3-9.9c-0.2-1.3-1.3-2.3-2.7-2.4
	c-2.1-0.1-4.2,0.1-6.3,0.5c-0.7,0.1-1.1,0.7-1.1,1.4c0.4,4.3,1.3,8.5,2.6,12.5c1,3.3,2.3,6.5,3.8,9.6c1.6,3.3,3.4,6.5,5.5,9.5
	c1.6,2.6,3.5,5,5.5,7.3c0.3,0.4,0.9,0.5,1.3,0.3c2.2-1.1,4-2.8,5.2-4.8c0.6-0.9,0.5-2.1-0.2-3c-1.1-1.3-2.2-2.6-3.1-4
	c-0.2-0.4-0.2-0.9,0.1-1.2c4-4.4,6.4-6.2,10.7-7.2c1.5-0.3,3,0.2,3.9,1.5c0.8,1.1,1.7,2.2,2.7,3.2c2.6,2.8,5.5,5.2,8.6,7.4
	c4.5,2.8,9.4,5,14.5,6.3c2.9,0.8,5.8,1.2,8.8,1.2c0.4,0,0.8,0.3,1,0.7c2.8,7,2.9,11.9-0.2,14.7c-0.5,0.4-1.1,0.7-1.8,0.6
	c-2.2-0.1-5.8-0.7-8.1-1.1c-0.6-0.1-1.2,0.2-1.4,0.8c-0.5,1.4-1,2.8-1.3,4.2c-0.6,2.2,0.8,4.4,3,5c0,0,0,0,0,0l0.3,0.1
	c3.1,0.5,6.3,0.9,9.4,1.1c5.1,0.2,10.2-0.2,15.2-1.2c3-0.6,6-1.4,8.9-2.4c0.4-0.2,0.7-0.5,0.7-1c0.1-3.2-0.8-4.8-3.1-6.8
	c-0.9-0.8-2.1-1-3.3-0.8c-2.6,0.7-5.2,1.2-7.8,1.5c-0.4,0.1-0.7-0.1-0.9-0.4c-2.5-3.5-3.5-6.5-3.1-14.2c0-0.6,0.5-1.1,1.1-1.2
	c1.7-0.2,3.4-0.4,5.1-0.8c0.8-0.2,1.4-0.8,1.5-1.6c0.4-2.7-0.5-5.4-2.5-7.4c-0.3-0.3-0.7-0.4-1.1-0.3c-2.1,0.5-4.2,0.7-6.3,0.9
	c-2.6,0.1-5.2,0-7.8-0.3c-4.5-0.6-8.8-2.1-12.7-4.2c-3-1.6-5.8-3.7-8.2-6.2c-2.5-2.3-4.7-4.9-6.5-7.8c-2.6-4.2-2.7-5.5-3.8-9
	C173,355.1,172.7,354.8,172.2,354.8z"/>
<path class="st1" d="M273.1,360.8c-1.1,0.1-2.1,0.8-2.5,1.8c-2,6.4-3.3,9.7-6.6,15.2c-3.6,6.1-8.2,11.5-13.7,16
	c-0.4,0.4-0.6,1-0.4,1.5c0.9,2,2.2,3.8,3.9,5.2c1.2,1,3,1,4.2,0c7.5-6.7,11.8-12,16-19.7c2.2-4,4-8.3,5.5-12.6c1-3-0.7-6.2-3.6-7.1
	c0,0,0,0,0,0c-0.4-0.1-0.8-0.2-1.2-0.2C274.1,360.8,273.6,360.8,273.1,360.8z"/>
<path class="st2" d="M209.7,486.6c-54.5,0-98.7,44.2-98.7,98.7s44.2,98.7,98.7,98.7s98.7-44.2,98.7-98.7c0,0,0,0,0,0
	C308.5,530.8,264.3,486.6,209.7,486.6C209.7,486.6,209.7,486.6,209.7,486.6z M209.7,672.6c-48.2,0-87.3-39.1-87.3-87.3
	c0-48.2,39.1-87.3,87.3-87.3s87.3,39.1,87.3,87.3l0,0C297.1,633.5,258,672.6,209.7,672.6C209.8,672.6,209.7,672.6,209.7,672.6z"/>
<circle class="st2" cx="209.7" cy="585.3" r="22.5"/>
<circle class="st2" cx="185.4" cy="515.5" r="7.5"/>
<circle class="st2" cx="273.7" cy="571.6" r="13"/>
<circle class="st2" cx="169.1" cy="648.9" r="6.2"/>
<circle class="st2" cx="152.7" cy="581" r="8.8"/>
<circle class="st2" cx="238.7" cy="636.4" r="5.9"/>
<circle class="st2" cx="236" cy="567.9" r="3.2"/>
<path class="st2" d="M247.4,577.2c-0.3,0.2-0.4,0.6-0.4,1c0.6,3.4,0.8,6.9,0.5,10.3c-0.3,4.2-1.3,8.2-3.1,12
	c-1.1,2.5-2.5,4.9-4.1,7.1c-0.7,0.9-0.5,2.2,0.4,3c1.8,1.5,3.6,2.9,5.5,4.1c0.4,0.3,1.1,0.2,1.4-0.2c2.2-2.9,4.1-6.1,5.6-9.4
	c2.4-5.4,3.8-11.2,4.2-17.1c0.2-3.6-0.1-7.2-0.7-10.8c-0.2-1-1.1-1.8-2.2-1.8C252.2,575.4,249.1,575.7,247.4,577.2z"/>
<path class="st2" d="M232,553.2c1.5-1.8,2.7-3.8,3.5-6.1c0.4-1,0-2.1-0.9-2.7c-1.7-1-3.4-1.9-5.2-2.7c-1.6-0.7-3.2-1.3-4.9-1.9
	c-0.3-0.1-0.7-0.3-0.9-0.6c-1.8-1.9-1.9-4.7,3.9-14.1c0.2-0.4,0.7-0.6,1.1-0.5c1.8,0.5,3.7,1.1,5.4,1.9c3.3,1.3,6.4,2.9,9.4,4.8
	c3.8,2.4,7.4,5.2,10.6,8.4c2,1.9,3.9,4,5.6,6.1c0.3,0.3,0.8,0.6,1.2,0.6c3,0,5.7-1.6,7.2-4.2c0.3-0.7,0.2-1.6-0.3-2.2
	c-2.1-2.9-4.5-5.5-7.1-8c-4.2-4.1-8.8-7.6-13.9-10.5c-4.9-2.9-10.2-5.2-15.7-6.6c-5.1-1.8-10.4-2.8-15.8-3
	c-6.1-0.2-8.6-0.2-11.1,0.2c-0.8,0.2-1.5,0.7-1.7,1.5c-0.4,1.1-0.4,2.3-0.3,3.5c0.5,2.7,2.8,4.7,5.6,4.7c2.6-0.1,5.1,0,7.7,0.2
	c2.5,0.9,6.8,1.3,1.1,14.8c-0.3,0.6-0.9,1-1.6,0.9c-2.9-0.4-5.9-0.4-8.9-0.1c-4.3,0.3-8.5,1.2-12.6,2.7c-4.4,1.5-8.5,3.7-12.1,6.5
	c-2.5,1.8-4.8,3.8-6.8,6.2c-2.7,1.7-7.3,1.9-12.4-8.6c-0.2-0.5-0.1-1.1,0.3-1.5c1.8-2.1,3.7-4,5.8-5.7c3.9-3,5.2-3.9,7.2-5.3
	c0.4-0.3,0.6-0.9,0.4-1.4c-1.1-2.5-3-4.6-5.5-5.9c-0.8-0.4-1.7-0.3-2.4,0.2c-1.4,0.9-2.9,2-5.8,4.3c-2.8,2.3-5.3,4.9-7.7,7.6
	c-3.2,3.5-5.9,7.3-8.2,11.4c-1.4,2.2-2.6,4.6-3.5,7c0.6,2.1,5.5,6.9,8.3,5.9c1.2-3,2.8-5.9,4.5-8.7c0.2-0.3,0.5-0.5,0.8-0.5
	c6-0.9,8.8,4.1,11.6,8.8c0.2,0.3,0.2,0.6,0,0.9c-0.7,1.5-1.2,2.7-2,4.7c-0.7,1.6-1.3,3.3-1.8,5c-0.1,0.3-0.1,0.7,0.1,1
	c1.8,2.7,5.2,3.9,8.3,2.9c0.4-0.2,0.8-0.5,0.9-1c0.5-1.6,1.1-3.2,1.8-4.8c1.1-2.4,2.5-4.7,4.2-6.9c2.4-3.3,4.5-5.2,8.4-8.2
	c2.4-1.8,5-3.2,7.8-4.3c3.4-1.5,7-2.3,10.7-2.6c2.5-0.2,4.9-0.2,7.4,0c2.9,0.3,5.7,0.9,8.5,1.9c2.8,1,5.5,2.3,8.1,3.9
	C230.8,553.8,231.5,553.7,232,553.2z"/>
<path class="st2" d="M172.2,594.9c-2.2,0-4.4,0.3-6.4,1.1c-1.3,0.4-2,1.8-1.7,3.2c0.6,2.1,1.4,4.1,2.4,6c0.3,0.7,0.2,1.6-0.4,2.2
	c-7.2,6.9-9.6,7.5-13,6.1c-0.4-0.2-0.7-0.5-0.9-0.9c-1.2-2.5-2.2-5.1-3.1-7.7c-1-3.2-1.8-6.5-2.3-9.9c-0.2-1.3-1.3-2.3-2.7-2.4
	c-2.1-0.1-4.2,0.1-6.3,0.5c-0.7,0.1-1.1,0.7-1.1,1.4c0.5,4.3,1.3,8.5,2.6,12.5c1,3.3,2.2,6.5,3.8,9.6c1.6,3.3,3.4,6.4,5.5,9.4
	c1.6,2.6,3.5,5,5.5,7.3c0.3,0.4,0.9,0.5,1.3,0.3c2.2-1.1,4-2.8,5.2-4.8c0.6-0.9,0.6-2.1-0.2-3c-1.1-1.3-2.2-2.6-3.1-4.1
	c-0.2-0.4-0.2-0.9,0.1-1.2c4-4.4,6.4-6.2,10.7-7.2c1.5-0.3,3,0.2,3.9,1.5c0.8,1.1,1.7,2.2,2.7,3.2c2.6,2.8,5.5,5.3,8.6,7.4
	c4.5,2.8,9.4,5,14.5,6.3c2.9,0.8,5.8,1.2,8.8,1.2c0.4,0,0.8,0.3,1,0.7c2.8,7,2.9,11.9-0.2,14.7c-0.5,0.4-1.1,0.7-1.8,0.6
	c-2.2-0.1-5.8-0.7-8.1-1.1c-0.6-0.1-1.2,0.2-1.4,0.8c-0.5,1.4-1,2.8-1.3,4.2c-0.5,2.2,0.8,4.4,3,5l0.3,0.1c3.1,0.5,6.3,0.9,9.4,1.1
	c5.1,0.2,10.2-0.2,15.2-1.2c3-0.6,6-1.4,8.9-2.4c0.4-0.1,0.7-0.5,0.7-1c0.1-3.2-0.8-4.7-3.1-6.8c-0.9-0.8-2.1-1.1-3.2-0.8
	c-2.6,0.6-5.2,1.2-7.8,1.5c-0.4,0-0.7-0.1-0.9-0.4c-2.5-3.5-3.5-6.5-3.1-14.2c0-0.6,0.5-1.1,1.1-1.2c1.7-0.2,3.4-0.5,5.1-0.8
	c0.8-0.2,1.4-0.9,1.6-1.7c0.4-2.7-0.5-5.4-2.5-7.3c-0.3-0.3-0.7-0.4-1.1-0.3c-2.1,0.5-4.2,0.8-6.3,0.9c-2.6,0.1-5.2,0-7.8-0.3
	c-4.5-0.6-8.8-2.1-12.7-4.2c-3-1.6-5.8-3.7-8.2-6.2c-2.5-2.3-4.7-4.9-6.5-7.8c-2.6-4.2-2.7-5.5-3.8-9
	C173,595.2,172.7,594.9,172.2,594.9z"/>
<path class="st2" d="M273.1,601c-1.1,0.1-2.1,0.8-2.5,1.8c-2,6.4-3.3,9.7-6.6,15.2c-3.6,6.1-8.2,11.5-13.7,16
	c-0.4,0.4-0.6,1-0.4,1.5c0.9,2,2.2,3.8,3.9,5.2c1.2,1,3,1,4.2,0c7.5-6.7,11.8-12,16-19.7c2.2-4,4-8.3,5.5-12.6c1-3-0.6-6.1-3.6-7.1
	c0,0,0,0,0,0c-0.4-0.1-0.8-0.2-1.2-0.2C274.1,601,273.6,601,273.1,601z"/>
<path class="st3" d="M209.7,726.7c-54.5,0-98.7,44.2-98.7,98.7s44.2,98.7,98.7,98.7s98.7-44.2,98.7-98.7S264.3,726.7,209.7,726.7
	L209.7,726.7z M209.7,912.8c-48.2,0-87.3-39.1-87.3-87.3c0-48.2,39.1-87.3,87.3-87.3s87.3,39.1,87.3,87.3
	C297.1,873.7,258,912.8,209.7,912.8C209.8,912.8,209.7,912.8,209.7,912.8z"/>
<circle class="st3" cx="209.7" cy="825.5" r="22.5"/>
<circle class="st3" cx="185.4" cy="755.6" r="7.5"/>
<circle class="st3" cx="273.7" cy="811.8" r="13"/>
<circle class="st3" cx="169" cy="889.1" r="6.2"/>
<circle class="st3" cx="152.7" cy="821.1" r="8.8"/>
<circle class="st3" cx="238.7" cy="876.6" r="5.9"/>
<circle class="st3" cx="236" cy="808" r="3.2"/>
<path class="st3" d="M247.4,817.3c-0.3,0.2-0.4,0.6-0.4,1c0.7,3.4,0.8,6.9,0.5,10.3c-0.3,4.2-1.3,8.2-3.1,12
	c-1.1,2.5-2.5,4.9-4.1,7.1c-0.7,0.9-0.5,2.2,0.4,3c1.8,1.5,3.6,2.9,5.5,4.1c0.5,0.3,1.1,0.2,1.4-0.2c2.2-2.9,4.1-6.1,5.6-9.3
	c2.4-5.4,3.8-11.3,4.2-17.2c0.2-3.6-0.1-7.2-0.7-10.8c-0.2-1.1-1.1-1.8-2.2-1.8C252.2,815.6,249.1,815.9,247.4,817.3z"/>
<path class="st3" d="M231.9,793.3c1.5-1.8,2.7-3.8,3.5-6c0.4-1,0-2.1-0.9-2.7c-1.7-1-3.4-1.9-5.2-2.7c-1.6-0.7-3.2-1.3-4.9-1.9
	c-0.4-0.1-0.7-0.3-0.9-0.6c-1.8-1.9-1.9-4.7,3.9-14.1c0.2-0.4,0.7-0.6,1.1-0.5c1.9,0.5,3.7,1.1,5.5,1.9c3.3,1.3,6.4,2.9,9.4,4.8
	c3.8,2.4,7.4,5.3,10.6,8.4c2,2,3.9,4,5.6,6.1c0.3,0.3,0.8,0.6,1.2,0.6c3,0,5.7-1.6,7.2-4.2c0.3-0.7,0.2-1.6-0.3-2.2
	c-2.1-2.9-4.5-5.5-7.1-8c-4.2-4.1-8.8-7.6-13.9-10.5c-4.9-3-10.2-5.2-15.7-6.7c-5.1-1.8-10.4-2.8-15.8-3c-6.1-0.2-8.6-0.3-11.1,0.2
	c-0.8,0.2-1.5,0.7-1.7,1.5c-0.4,1.1-0.4,2.3-0.3,3.5c0.5,2.7,2.9,4.7,5.6,4.7c2.6-0.1,5.1,0,7.7,0.2c2.5,0.8,6.8,1.3,1.1,14.8
	c-0.3,0.6-0.9,1-1.6,0.9c-2.9-0.4-5.9-0.4-8.9-0.1c-4.3,0.3-8.5,1.2-12.6,2.7c-4.4,1.5-8.4,3.7-12.1,6.5c-2.5,1.8-4.8,3.8-6.8,6.2
	c-2.7,1.7-7.3,1.9-12.4-8.7c-0.2-0.5-0.1-1.1,0.3-1.5c1.7-2.1,3.7-3.9,5.8-5.7c3.9-3,5.2-3.9,7.2-5.3c0.4-0.3,0.6-0.9,0.4-1.4
	c-1.1-2.5-3-4.6-5.5-5.9c-0.8-0.4-1.7-0.3-2.4,0.2c-1.4,0.9-2.9,2-5.8,4.3c-2.8,2.3-5.3,4.9-7.7,7.6c-3.2,3.5-5.9,7.3-8.3,11.4
	c-1.4,2.2-2.5,4.6-3.5,7c0.6,2.1,5.5,6.9,8.3,5.9c1.3-3,2.8-5.9,4.5-8.7c0.2-0.3,0.5-0.5,0.8-0.5c6-0.9,8.8,4.1,11.6,8.8
	c0.2,0.3,0.2,0.6,0,0.9c-0.7,1.5-1.2,2.7-2,4.7c-0.7,1.6-1.3,3.3-1.8,5c-0.1,0.4-0.1,0.7,0.1,1c1.8,2.7,5.2,3.9,8.3,2.9
	c0.4-0.2,0.7-0.5,0.9-0.9c0.5-1.6,1.1-3.2,1.8-4.8c1.1-2.4,2.5-4.7,4.2-6.9c2.4-3.3,4.5-5.2,8.4-8.2c5.4-3.9,11.9-6.3,18.5-6.9
	c2.5-0.2,4.9-0.2,7.4,0c2.9,0.3,5.7,0.9,8.5,1.9c2.8,1,5.5,2.3,8.1,3.9C230.7,793.9,231.5,793.8,231.9,793.3z"/>
<path class="st3" d="M172.2,835.1c-2.2,0-4.4,0.3-6.5,1.1c-1.3,0.5-2,1.8-1.7,3.2c0.6,2.1,1.4,4.1,2.4,6c0.3,0.7,0.2,1.6-0.4,2.1
	c-7.2,6.9-9.6,7.5-13,6.1c-0.4-0.2-0.7-0.5-0.9-0.9c-1.2-2.5-2.2-5.1-3.1-7.7c-1-3.2-1.8-6.5-2.3-9.9c-0.2-1.3-1.3-2.3-2.7-2.4
	c-2.1-0.1-4.2,0.1-6.3,0.5c-0.7,0.1-1.1,0.7-1.1,1.4c0.5,4.3,1.3,8.5,2.6,12.5c1,3.3,2.3,6.5,3.8,9.6c1.6,3.3,3.4,6.5,5.5,9.5
	c1.6,2.6,3.5,5,5.5,7.3c0.3,0.4,0.9,0.5,1.3,0.3c2.2-1.1,4-2.8,5.2-4.8c0.6-0.9,0.6-2.1-0.1-3c-1.1-1.3-2.2-2.6-3.1-4
	c-0.2-0.4-0.2-0.9,0.1-1.2c4-4.4,6.4-6.2,10.7-7.2c1.5-0.3,3,0.2,3.9,1.5c0.8,1.1,1.7,2.2,2.7,3.2c2.6,2.8,5.5,5.2,8.6,7.4
	c4.5,2.8,9.4,5,14.5,6.3c2.9,0.8,5.8,1.2,8.8,1.2c0.4,0,0.8,0.3,1,0.7c2.8,7,2.9,11.9-0.2,14.7c-0.5,0.4-1.1,0.7-1.8,0.6
	c-2.2-0.1-5.8-0.7-8.1-1.1c-0.6-0.1-1.2,0.2-1.4,0.8c-0.5,1.3-0.9,2.7-1.3,4.1c-0.6,2.2,0.8,4.4,3,5c0,0,0,0,0,0l0.3,0.1
	c3.1,0.5,6.3,0.9,9.4,1.1c5.1,0.2,10.2-0.2,15.2-1.2c3-0.6,6-1.4,8.9-2.4c0.4-0.2,0.7-0.5,0.7-1c0.1-3.2-0.8-4.8-3.1-6.8
	c-0.9-0.8-2.1-1-3.3-0.8c-2.6,0.6-5.2,1.2-7.8,1.5c-0.4,0.1-0.7-0.1-0.9-0.4c-2.5-3.5-3.5-6.5-3.1-14.2c0-0.6,0.5-1.1,1.1-1.2
	c1.7-0.2,3.4-0.4,5.1-0.8c0.8-0.2,1.4-0.8,1.5-1.7c0.4-2.7-0.5-5.4-2.5-7.3c-0.3-0.3-0.7-0.4-1.1-0.3c-2.1,0.5-4.2,0.7-6.3,0.9
	c-2.6,0.1-5.2,0-7.8-0.3c-4.5-0.6-8.8-2.1-12.7-4.2c-3-1.6-5.8-3.7-8.2-6.2c-2.5-2.3-4.7-4.9-6.5-7.8c-2.6-4.2-2.7-5.5-3.8-9
	C173,835.4,172.7,835.1,172.2,835.1z"/>
<path class="st3" d="M273.1,841.2c-1.1,0.1-2.1,0.8-2.5,1.8c-2,6.4-3.3,9.7-6.6,15.2c-3.6,6.1-8.2,11.5-13.7,16
	c-0.4,0.4-0.6,1-0.4,1.5c0.9,2,2.2,3.8,3.9,5.2c1.2,1,3,1,4.2,0c7.5-6.7,11.8-12,16-19.7c2.2-4,4-8.3,5.5-12.6c1-3-0.7-6.2-3.6-7.1
	c0,0,0,0,0,0c-0.4-0.1-0.8-0.2-1.2-0.2C274.1,841.2,273.6,841.1,273.1,841.2z"/>
<path class="st0" d="M476.2,6.2c-54.5,0-98.7,44.3-98.7,98.8s44.3,98.7,98.8,98.7c54.5,0,98.7-44.2,98.7-98.7
	c0-54.5-44.2-98.7-98.7-98.8C476.3,6.2,476.2,6.2,476.2,6.2z M476.2,192.3c-48.2,0-87.3-39.1-87.3-87.3s39.1-87.3,87.3-87.3
	c48.2,0,87.3,39.1,87.3,87.3c0,0,0,0,0,0C563.5,153.2,524.4,192.3,476.2,192.3z"/>
<circle class="st0" cx="476.2" cy="105" r="22.5"/>
<circle class="st0" cx="451.9" cy="35.1" r="7.5"/>
<circle class="st0" cx="540.2" cy="91.3" r="13"/>
<circle class="st0" cx="435.5" cy="168.6" r="6.2"/>
<circle class="st0" cx="419.1" cy="100.6" r="8.8"/>
<circle class="st0" cx="505.2" cy="156.1" r="5.9"/>
<circle class="st0" cx="502.5" cy="87.5" r="3.2"/>
<path class="st0" d="M513.9,96.8c-0.3,0.2-0.4,0.6-0.4,1c0.6,3.4,0.8,6.9,0.5,10.3c-0.3,4.2-1.3,8.2-3.1,12
	c-1.1,2.5-2.5,4.9-4.1,7.1c-0.7,0.9-0.5,2.2,0.4,3c1.8,1.5,3.6,2.9,5.5,4.1c0.4,0.3,1.1,0.2,1.4-0.2c2.2-2.9,4.1-6.1,5.6-9.4
	c2.4-5.4,3.8-11.2,4.2-17.1c0.2-3.6-0.1-7.2-0.7-10.8c-0.2-1.1-1.1-1.9-2.2-1.8C518.7,95.1,515.6,95.4,513.9,96.8z"/>
<path class="st0" d="M498.4,72.8c1.5-1.8,2.7-3.8,3.5-6.1c0.4-1,0-2.1-1-2.7c-1.7-1-3.4-1.9-5.2-2.7c-1.6-0.7-3.2-1.3-4.9-1.9
	c-0.4-0.1-0.7-0.3-0.9-0.5c-1.8-1.9-1.9-4.7,3.9-14.1c0.2-0.4,0.7-0.6,1.1-0.5c1.9,0.5,3.7,1.1,5.5,1.9c3.3,1.3,6.4,2.9,9.4,4.8
	c3.8,2.4,7.4,5.2,10.6,8.4c2,1.9,3.9,4,5.7,6.1c0.3,0.3,0.8,0.6,1.2,0.6c3,0,5.7-1.6,7.2-4.2c0.3-0.7,0.2-1.6-0.3-2.2
	c-2.1-2.9-4.5-5.5-7.1-8c-4.2-4.1-8.8-7.6-13.9-10.5c-4.9-3-10.2-5.2-15.7-6.7c-5.1-1.8-10.4-2.8-15.8-3c-6.1-0.2-8.6-0.2-11.1,0.2
	c-0.8,0.2-1.5,0.7-1.7,1.5c-0.4,1.1-0.4,2.3-0.3,3.5c0.5,2.7,2.8,4.7,5.6,4.7c2.6-0.1,5.1,0,7.7,0.2c2.5,0.9,6.8,1.3,1.1,14.8
	c-0.3,0.6-0.9,1-1.6,0.9c-2.9-0.4-5.9-0.4-8.9-0.1c-4.3,0.3-8.5,1.3-12.5,2.7c-4.4,1.5-8.5,3.7-12.1,6.5c-2.5,1.8-4.8,3.8-6.9,6.2
	c-2.7,1.7-7.3,1.9-12.4-8.6c-0.2-0.5-0.1-1.1,0.3-1.5c1.8-2,3.7-3.9,5.8-5.6c3.9-3,5.2-3.9,7.2-5.3c0.4-0.3,0.6-0.9,0.4-1.4
	c-1.1-2.5-3-4.6-5.5-5.9c-0.8-0.4-1.7-0.3-2.4,0.2c-1.4,0.9-2.9,2-5.8,4.3c-2.8,2.3-5.3,4.8-7.6,7.6c-3.2,3.5-5.9,7.3-8.2,11.4
	c-1.4,2.2-2.6,4.6-3.5,7c0.5,2.1,5.5,6.9,8.3,5.9c1.2-3,2.8-5.9,4.5-8.7c0.2-0.3,0.5-0.5,0.8-0.5c6-0.9,8.8,4.1,11.6,8.8
	c0.2,0.3,0.2,0.6,0,0.9c-0.7,1.5-1.2,2.7-2,4.7c-0.7,1.6-1.3,3.3-1.8,5c-0.1,0.3,0,0.7,0.1,1c1.8,2.7,5.2,3.9,8.3,2.9
	c0.4-0.2,0.7-0.5,0.9-0.9c0.5-1.6,1.1-3.2,1.8-4.8c1.1-2.4,2.5-4.7,4.2-6.9c2.4-3.3,4.5-5.2,8.4-8.2c2.4-1.8,5-3.2,7.8-4.3
	c3.4-1.5,7-2.3,10.7-2.6c2.5-0.2,4.9-0.2,7.4,0c2.9,0.3,5.7,0.9,8.5,1.9c2.8,1,5.5,2.3,8.1,3.9C497.2,73.3,498,73.3,498.4,72.8z"/>
<path class="st0" d="M438.7,114.6c-2.2,0-4.4,0.3-6.5,1.1c-1.3,0.4-2,1.8-1.7,3.2c0.6,2.1,1.4,4.1,2.4,6c0.3,0.7,0.2,1.6-0.4,2.2
	c-7.2,6.9-9.6,7.5-13,6.1c-0.4-0.2-0.7-0.5-0.9-0.9c-1.2-2.5-2.2-5.1-3.1-7.7c-1-3.2-1.8-6.5-2.3-9.9c-0.2-1.3-1.3-2.3-2.7-2.4
	c-2.1-0.1-4.2,0.1-6.3,0.5c-0.7,0.1-1.1,0.7-1.1,1.4c0.5,4.3,1.3,8.5,2.6,12.6c1,3.3,2.2,6.5,3.8,9.6c1.6,3.3,3.4,6.5,5.5,9.4
	c1.6,2.6,3.5,5,5.5,7.3c0.3,0.4,0.9,0.5,1.3,0.3c2.2-1.1,4-2.8,5.2-4.8c0.6-0.9,0.6-2.1-0.1-3c-1.1-1.3-2.2-2.6-3.1-4.1
	c-0.2-0.4-0.2-0.9,0.1-1.2c4-4.4,6.4-6.2,10.7-7.2c1.5-0.3,3,0.2,3.9,1.5c0.8,1.1,1.7,2.2,2.7,3.2c2.6,2.8,5.5,5.3,8.6,7.4
	c4.5,2.8,9.4,5,14.5,6.3c2.9,0.8,5.8,1.2,8.8,1.2c0.4,0,0.8,0.3,1,0.7c2.8,7,2.9,11.9-0.2,14.7c-0.5,0.4-1.1,0.7-1.8,0.6
	c-2.2-0.1-5.8-0.7-8.1-1.1c-0.6-0.1-1.2,0.2-1.4,0.8c-0.5,1.4-1,2.8-1.3,4.2c-0.6,2.2,0.8,4.4,3,5c0,0,0,0,0,0l0.3,0.1
	c3.1,0.5,6.3,0.9,9.4,1.1c5.1,0.2,10.2-0.2,15.2-1.2c3-0.6,6-1.4,8.9-2.4c0.4-0.1,0.7-0.5,0.7-1c0.1-3.2-0.8-4.7-3.1-6.8
	c-0.9-0.8-2.1-1.1-3.2-0.8c-2.6,0.6-5.2,1.2-7.8,1.5c-0.4,0-0.7-0.1-0.9-0.4c-2.5-3.5-3.5-6.5-3.1-14.2c0-0.6,0.5-1.1,1.1-1.2
	c1.7-0.2,3.4-0.5,5.1-0.8c0.8-0.2,1.4-0.8,1.5-1.7c0.4-2.7-0.5-5.4-2.5-7.3c-0.3-0.3-0.7-0.4-1.1-0.4c-2.1,0.5-4.2,0.7-6.3,0.9
	c-2.6,0.1-5.2,0-7.8-0.3c-4.5-0.6-8.8-2.1-12.7-4.2c-3-1.6-5.8-3.7-8.2-6.2c-2.5-2.3-4.7-4.9-6.5-7.8c-2.6-4.2-2.7-5.5-3.8-9
	C439.5,114.9,439.1,114.6,438.7,114.6z"/>
<path class="st0" d="M539.6,120.7c-1.1,0.1-2.1,0.8-2.5,1.8c-2,6.4-3.3,9.7-6.6,15.2c-3.6,6.1-8.2,11.5-13.7,16
	c-0.4,0.4-0.6,1-0.4,1.5c0.9,2,2.2,3.8,3.9,5.2c1.2,1,3,1,4.2,0c7.5-6.7,11.8-12,16-19.7c2.2-4,4-8.3,5.5-12.6
	c0.9-3-0.7-6.1-3.6-7.1c-0.4-0.1-0.8-0.2-1.2-0.2C540.6,120.7,540.1,120.7,539.6,120.7z"/>
<path class="st1" d="M476.2,246.4c-54.5,0-98.7,44.3-98.7,98.8s44.3,98.7,98.8,98.7c54.5,0,98.7-44.2,98.7-98.7
	C575,290.6,530.8,246.4,476.2,246.4C476.2,246.4,476.2,246.4,476.2,246.4z M476.2,432.5c-48.2,0-87.3-39.1-87.3-87.3
	s39.1-87.3,87.3-87.3s87.3,39.1,87.3,87.3S524.4,432.5,476.2,432.5L476.2,432.5z"/>
<circle class="st1" cx="476.2" cy="345.1" r="22.5"/>
<circle class="st1" cx="451.9" cy="275.3" r="7.5"/>
<circle class="st1" cx="540.2" cy="331.4" r="13"/>
<circle class="st1" cx="435.5" cy="408.8" r="6.2"/>
<circle class="st1" cx="419.1" cy="340.8" r="8.8"/>
<circle class="st1" cx="505.2" cy="396.2" r="5.9"/>
<circle class="st1" cx="502.5" cy="327.7" r="3.2"/>
<path class="st1" d="M513.9,337c-0.3,0.2-0.4,0.6-0.4,1c0.6,3.4,0.8,6.9,0.5,10.3c-0.3,4.2-1.3,8.2-3.1,12c-1.1,2.5-2.5,4.9-4.1,7.1
	c-0.7,0.9-0.5,2.2,0.4,3c1.8,1.5,3.6,2.9,5.5,4.1c0.5,0.3,1.1,0.2,1.4-0.2c2.2-2.9,4.1-6.1,5.6-9.4c2.4-5.4,3.8-11.2,4.2-17.1
	c0.2-3.6-0.1-7.2-0.7-10.8c-0.2-1.1-1.1-1.8-2.2-1.8C518.7,335.2,515.6,335.5,513.9,337z"/>
<path class="st1" d="M498.4,313c1.5-1.8,2.7-3.8,3.5-6c0.4-1,0-2.1-1-2.7c-1.7-1-3.4-1.9-5.2-2.7c-1.6-0.7-3.2-1.3-4.9-1.9
	c-0.4-0.1-0.7-0.3-0.9-0.6c-1.8-1.9-1.9-4.7,3.9-14.1c0.2-0.4,0.7-0.6,1.1-0.5c1.9,0.5,3.7,1.1,5.5,1.9c3.3,1.3,6.4,2.9,9.4,4.8
	c3.8,2.4,7.4,5.2,10.6,8.4c2,2,3.9,4,5.7,6.1c0.3,0.3,0.8,0.6,1.2,0.6c3,0,5.7-1.6,7.2-4.2c0.3-0.7,0.2-1.6-0.3-2.2
	c-2.1-2.9-4.5-5.5-7.1-8c-4.2-4.1-8.8-7.6-13.9-10.5c-4.9-3-10.2-5.2-15.7-6.7c-5.1-1.8-10.4-2.8-15.8-3c-6.1-0.2-8.6-0.3-11.1,0.2
	c-0.8,0.2-1.5,0.7-1.7,1.5c-0.4,1.1-0.4,2.3-0.3,3.5c0.5,2.7,2.9,4.7,5.6,4.7c2.6-0.1,5.1,0,7.7,0.2c2.5,0.9,6.8,1.3,1.1,14.8
	c-0.3,0.6-0.9,1-1.6,0.9c-2.9-0.4-5.9-0.4-8.9-0.1c-4.3,0.3-8.5,1.2-12.6,2.7c-4.4,1.5-8.4,3.7-12.1,6.5c-2.5,1.8-4.8,3.9-6.8,6.2
	c-2.7,1.6-7.3,1.9-12.4-8.6c-0.2-0.5-0.1-1.1,0.3-1.5c1.7-2.1,3.7-3.9,5.8-5.7c3.9-3,5.2-3.9,7.2-5.3c0.4-0.3,0.6-0.9,0.4-1.4
	c-1.1-2.5-3-4.6-5.5-5.9c-0.8-0.4-1.7-0.3-2.4,0.2c-1.4,0.9-2.9,2-5.8,4.4c-6.3,5.4-11.7,11.9-15.9,19c-1.4,2.2-2.6,4.6-3.5,7
	c0.5,2.1,5.5,6.9,8.3,5.9c1.2-3,2.7-5.9,4.5-8.7c0.2-0.3,0.5-0.5,0.8-0.5c6-0.9,8.8,4.1,11.6,8.8c0.2,0.3,0.2,0.6,0,0.9
	c-0.7,1.5-1.2,2.7-2,4.7c-0.7,1.6-1.3,3.3-1.8,5c-0.1,0.4-0.1,0.7,0.1,1c1.9,2.7,5.3,3.8,8.4,2.8c0.4-0.2,0.7-0.5,0.9-0.9
	c0.5-1.6,1.1-3.2,1.8-4.8c1.1-2.4,2.6-4.7,4.2-6.9c2.4-3.3,4.5-5.2,8.4-8.2c2.4-1.8,5-3.3,7.8-4.3c3.4-1.5,7-2.3,10.7-2.5
	c2.5-0.2,4.9-0.2,7.4,0c2.9,0.3,5.7,0.9,8.5,1.9c2.8,1,5.5,2.3,8.1,3.9C497.2,313.5,498,313.5,498.4,313z"/>
<path class="st1" d="M438.7,354.8c-2.2,0-4.4,0.3-6.5,1.1c-1.3,0.4-2,1.8-1.7,3.1c0.6,2.1,1.4,4.1,2.4,6c0.3,0.7,0.2,1.6-0.4,2.1
	c-7.2,6.9-9.6,7.5-13,6.1c-0.4-0.2-0.7-0.5-0.9-0.9c-1.2-2.5-2.2-5.1-3.1-7.7c-1-3.2-1.8-6.5-2.3-9.9c-0.2-1.3-1.3-2.3-2.7-2.4
	c-2.1-0.1-4.2,0.1-6.3,0.5c-0.7,0.1-1.1,0.7-1.1,1.4c0.4,4.3,1.3,8.5,2.6,12.5c1,3.3,2.3,6.5,3.8,9.6c1.6,3.3,3.4,6.5,5.5,9.5
	c1.6,2.6,3.5,5,5.5,7.3c0.3,0.4,0.9,0.5,1.3,0.3c2.2-1.1,4-2.8,5.2-4.8c0.6-0.9,0.5-2.1-0.2-3c-1.1-1.3-2.2-2.6-3.1-4
	c-0.2-0.4-0.2-0.9,0.1-1.2c4-4.4,6.4-6.2,10.7-7.2c1.5-0.3,3,0.2,3.9,1.5c0.8,1.1,1.7,2.2,2.7,3.2c2.6,2.8,5.5,5.2,8.6,7.4
	c4.5,2.8,9.4,5,14.5,6.3c2.9,0.8,5.8,1.2,8.8,1.2c0.4,0,0.8,0.3,1,0.7c2.8,7,2.9,11.9-0.2,14.7c-0.5,0.4-1.1,0.7-1.8,0.6
	c-2.2-0.1-5.8-0.7-8.1-1.1c-0.6-0.1-1.2,0.2-1.4,0.8c-0.5,1.4-1,2.8-1.3,4.2c-0.6,2.2,0.8,4.4,3,5c0,0,0,0,0,0l0.3,0.1
	c3.1,0.5,6.3,0.9,9.4,1.1c5.1,0.2,10.2-0.2,15.2-1.2c3-0.6,6-1.4,8.9-2.4c0.4-0.2,0.7-0.5,0.7-1c0.1-3.2-0.8-4.8-3.1-6.8
	c-0.9-0.8-2.1-1-3.3-0.8c-2.6,0.7-5.2,1.2-7.8,1.5c-0.4,0.1-0.7-0.1-0.9-0.4c-2.5-3.5-3.5-6.5-3.1-14.2c0-0.6,0.5-1.1,1.1-1.2
	c1.7-0.2,3.4-0.4,5.1-0.8c0.8-0.2,1.4-0.8,1.5-1.6c0.4-2.7-0.5-5.4-2.5-7.4c-0.3-0.3-0.7-0.4-1.1-0.3c-2.1,0.5-4.2,0.7-6.3,0.9
	c-2.6,0.1-5.2,0-7.8-0.3c-4.5-0.7-8.8-2.1-12.7-4.2c-3-1.6-5.8-3.7-8.2-6.2c-2.5-2.3-4.7-4.9-6.5-7.8c-2.6-4.2-2.7-5.5-3.8-9
	C439.5,355.1,439.1,354.8,438.7,354.8z"/>
<path class="st1" d="M539.6,360.8c-1.1,0.1-2.1,0.8-2.5,1.8c-2,6.4-3.3,9.7-6.7,15.2c-3.6,6.1-8.2,11.5-13.7,16
	c-0.4,0.4-0.6,1-0.4,1.5c0.9,2,2.2,3.8,3.9,5.2c1.2,1,3,1,4.2,0c7.5-6.7,11.8-12,16-19.7c2.2-4,4-8.3,5.5-12.6c1-3-0.7-6.2-3.6-7.1
	c0,0,0,0,0,0c-0.4-0.1-0.8-0.2-1.2-0.2C540.6,360.8,540.1,360.8,539.6,360.8z"/>
<path class="st2" d="M476.2,486.6c-54.5,0-98.7,44.3-98.7,98.8s44.3,98.7,98.8,98.7c54.5,0,98.7-44.2,98.7-98.8
	C575,530.8,530.8,486.6,476.2,486.6C476.2,486.6,476.2,486.6,476.2,486.6z M476.2,672.6c-48.2,0-87.3-39.1-87.3-87.3
	c0-48.2,39.1-87.3,87.3-87.3s87.3,39.1,87.3,87.3l0,0C563.6,633.5,524.5,672.6,476.2,672.6C476.2,672.6,476.2,672.6,476.2,672.6z"/>
<circle class="st2" cx="476.2" cy="585.3" r="22.5"/>
<circle class="st2" cx="451.9" cy="515.5" r="7.5"/>
<circle class="st2" cx="540.2" cy="571.6" r="13"/>
<circle class="st2" cx="435.5" cy="648.9" r="6.2"/>
<circle class="st2" cx="419.1" cy="581" r="8.8"/>
<circle class="st2" cx="505.2" cy="636.4" r="5.9"/>
<circle class="st2" cx="502.5" cy="567.9" r="3.2"/>
<path class="st2" d="M513.9,577.2c-0.3,0.2-0.4,0.6-0.4,1c0.7,3.4,0.8,6.9,0.5,10.3c-0.3,4.2-1.3,8.2-3.1,12
	c-1.1,2.5-2.5,4.9-4.1,7.1c-0.7,0.9-0.5,2.2,0.4,3c1.8,1.5,3.6,2.9,5.5,4.1c0.4,0.3,1.1,0.2,1.4-0.2c2.2-2.9,4.1-6.1,5.6-9.4
	c2.4-5.4,3.8-11.2,4.2-17.1c0.2-3.6-0.1-7.2-0.7-10.8c-0.2-1-1.1-1.8-2.2-1.8C518.7,575.4,515.6,575.7,513.9,577.2z"/>
<path class="st2" d="M498.4,553.2c1.5-1.8,2.7-3.8,3.5-6.1c0.4-1,0-2.1-1-2.7c-1.7-1-3.4-1.9-5.2-2.7c-1.6-0.7-3.2-1.3-4.9-1.9
	c-0.3-0.1-0.7-0.3-0.9-0.6c-1.8-1.9-1.9-4.7,3.9-14.1c0.2-0.4,0.7-0.6,1.1-0.5c1.9,0.5,3.7,1.1,5.5,1.9c3.3,1.3,6.4,2.9,9.4,4.8
	c3.8,2.4,7.4,5.2,10.6,8.4c2,1.9,3.9,4,5.7,6.1c0.3,0.3,0.8,0.6,1.2,0.6c3,0,5.7-1.6,7.2-4.2c0.3-0.7,0.2-1.6-0.3-2.2
	c-2.1-2.9-4.5-5.5-7.1-8c-4.2-4.1-8.8-7.6-13.9-10.5c-4.9-2.9-10.2-5.2-15.7-6.6c-5.1-1.8-10.4-2.8-15.8-3
	c-6.1-0.2-8.6-0.2-11.1,0.2c-0.8,0.2-1.5,0.7-1.7,1.5c-0.4,1.1-0.4,2.3-0.3,3.5c0.5,2.7,2.8,4.7,5.6,4.7c2.6-0.1,5.1,0,7.7,0.2
	c2.5,0.9,6.8,1.3,1.1,14.8c-0.3,0.6-0.9,1-1.6,0.9c-2.9-0.4-5.9-0.4-8.9-0.1c-4.3,0.3-8.5,1.2-12.6,2.7c-4.4,1.5-8.5,3.8-12.2,6.6
	c-2.5,1.8-4.8,3.8-6.8,6.2c-2.7,1.7-7.3,1.9-12.4-8.6c-0.2-0.5-0.1-1.1,0.3-1.5c1.8-2.1,3.7-4,5.8-5.7c3.9-3,5.2-3.9,7.2-5.3
	c0.4-0.3,0.6-0.9,0.4-1.4c-1.1-2.5-3-4.6-5.5-5.9c-0.8-0.4-1.7-0.3-2.4,0.2c-1.4,0.9-2.9,2-5.8,4.3c-2.8,2.3-5.3,4.9-7.7,7.6
	c-3.2,3.5-5.9,7.3-8.2,11.4c-1.4,2.2-2.6,4.6-3.5,7c0.5,2.1,5.5,6.9,8.3,5.9c1.2-3,2.8-5.9,4.5-8.7c0.2-0.3,0.5-0.5,0.8-0.5
	c6-0.9,8.8,4.1,11.6,8.8c0.2,0.3,0.2,0.6,0,0.9c-0.7,1.5-1.2,2.7-2,4.7c-0.7,1.6-1.3,3.3-1.8,5c-0.1,0.3,0,0.7,0.1,1
	c1.8,2.7,5.2,3.9,8.3,2.9c0.4-0.2,0.8-0.5,0.9-1c0.5-1.6,1.1-3.2,1.8-4.8c1.1-2.4,2.5-4.7,4.2-6.9c2.4-3.3,4.5-5.2,8.4-8.2
	c2.4-1.8,5-3.2,7.8-4.3c3.4-1.5,7-2.3,10.7-2.6c2.5-0.2,4.9-0.2,7.4,0c2.9,0.3,5.7,0.9,8.5,1.9c2.8,1,5.5,2.3,8.1,3.9
	C497.2,553.7,498,553.6,498.4,553.2z"/>
<path class="st2" d="M438.7,594.9c-2.2,0-4.4,0.3-6.5,1.1c-1.3,0.4-2,1.8-1.7,3.2c0.6,2.1,1.4,4.1,2.4,6c0.3,0.7,0.2,1.6-0.4,2.2
	c-7.2,6.9-9.6,7.5-13,6.1c-0.4-0.2-0.7-0.5-0.9-0.9c-1.2-2.5-2.2-5.1-3.1-7.7c-1-3.2-1.8-6.5-2.3-9.9c-0.2-1.3-1.3-2.3-2.7-2.4
	c-2.1-0.1-4.2,0.1-6.3,0.5c-0.7,0.1-1.1,0.7-1.1,1.4c0.5,4.3,1.3,8.5,2.6,12.5c1,3.3,2.2,6.5,3.8,9.6c1.6,3.3,3.4,6.5,5.5,9.5
	c1.6,2.6,3.5,5,5.5,7.3c0.3,0.4,0.9,0.5,1.3,0.3c2.2-1.1,4-2.8,5.2-4.8c0.6-0.9,0.6-2.1-0.1-3c-1.1-1.3-2.2-2.6-3.1-4.1
	c-0.2-0.4-0.2-0.9,0.1-1.2c4-4.4,6.4-6.2,10.7-7.2c1.5-0.3,3,0.2,3.9,1.5c0.8,1.1,1.7,2.2,2.7,3.2c2.6,2.8,5.5,5.3,8.6,7.4
	c4.5,2.8,9.4,5,14.5,6.3c2.9,0.8,5.8,1.2,8.8,1.2c0.4,0,0.8,0.3,1,0.7c2.8,7,2.9,11.9-0.2,14.7c-0.5,0.4-1.1,0.7-1.8,0.6
	c-2.2-0.1-5.8-0.7-8.1-1.1c-0.6-0.1-1.2,0.2-1.4,0.8c-0.5,1.4-1,2.8-1.3,4.2c-0.6,2.2,0.8,4.4,3,5c0,0,0,0,0,0l0.3,0.1
	c3.1,0.5,6.3,0.9,9.4,1.1c5.1,0.2,10.2-0.2,15.2-1.2c3-0.6,6-1.4,8.9-2.4c0.4-0.1,0.7-0.5,0.7-1c0.1-3.2-0.8-4.7-3.1-6.8
	c-0.9-0.8-2.1-1.1-3.2-0.8c-2.6,0.6-5.2,1.2-7.8,1.5c-0.4,0-0.7-0.1-0.9-0.4c-2.5-3.5-3.5-6.5-3.1-14.2c0-0.6,0.5-1.1,1.1-1.2
	c1.7-0.2,3.4-0.5,5.1-0.8c0.8-0.2,1.4-0.8,1.5-1.7c0.4-2.7-0.5-5.4-2.5-7.3c-0.3-0.3-0.7-0.4-1.1-0.3c-2.1,0.5-4.2,0.8-6.3,0.9
	c-2.6,0.1-5.2,0-7.8-0.3c-4.5-0.6-8.8-2.1-12.7-4.2c-3-1.6-5.8-3.7-8.2-6.2c-2.5-2.3-4.7-4.9-6.5-7.8c-2.6-4.2-2.7-5.5-3.8-9
	C439.5,595.3,439.1,595,438.7,594.9z"/>
<path class="st2" d="M539.6,601c-1.1,0.1-2.1,0.8-2.5,1.8c-2,6.4-3.3,9.7-6.6,15.2c-3.6,6.1-8.2,11.5-13.7,16
	c-0.4,0.4-0.6,1-0.4,1.5c0.9,2,2.2,3.8,3.9,5.2c1.2,1,3,1,4.2,0c7.5-6.7,11.8-12,16-19.7c2.2-4,4-8.3,5.5-12.6c1-3-0.7-6.2-3.6-7.1
	c-0.4-0.1-0.8-0.2-1.2-0.2C540.6,601,540.1,601,539.6,601z"/>
<path class="st3" d="M476.2,726.7c-54.5,0-98.7,44.3-98.7,98.8s44.3,98.7,98.8,98.7c54.5,0,98.7-44.2,98.7-98.7
	C575,770.9,530.8,726.7,476.2,726.7C476.2,726.7,476.2,726.7,476.2,726.7z M476.2,912.8c-48.2,0-87.3-39.1-87.3-87.3
	c0-48.2,39.1-87.3,87.3-87.3s87.3,39.1,87.3,87.3C563.6,873.7,524.5,912.8,476.2,912.8C476.2,912.8,476.2,912.8,476.2,912.8z"/>
<circle class="st3" cx="476.2" cy="825.5" r="22.5"/>
<circle class="st3" cx="451.9" cy="755.6" r="7.5"/>
<circle class="st3" cx="540.2" cy="811.8" r="13"/>
<circle class="st3" cx="435.5" cy="889.1" r="6.2"/>
<circle class="st3" cx="419.1" cy="821.1" r="8.8"/>
<circle class="st3" cx="505.2" cy="876.6" r="5.9"/>
<circle class="st3" cx="502.5" cy="808" r="3.2"/>
<path class="st3" d="M513.9,817.3c-0.3,0.2-0.4,0.6-0.4,1c0.7,3.4,0.8,6.9,0.5,10.3c-0.3,4.2-1.3,8.2-3.1,12
	c-1.1,2.5-2.5,4.9-4.1,7.1c-0.7,0.9-0.5,2.2,0.4,3c1.8,1.5,3.6,2.9,5.5,4.1c0.5,0.3,1.1,0.2,1.4-0.2c2.2-2.9,4.1-6.1,5.7-9.3
	c2.4-5.4,3.8-11.3,4.2-17.2c0.2-3.6-0.1-7.2-0.7-10.8c-0.2-1-1.1-1.8-2.2-1.7C518.7,815.6,515.6,815.9,513.9,817.3z"/>
<path class="st3" d="M498.4,793.3c1.5-1.8,2.7-3.8,3.5-6c0.4-1,0-2.1-1-2.7c-1.7-1-3.4-1.9-5.2-2.7c-1.6-0.7-3.2-1.3-4.9-1.9
	c-0.4-0.1-0.7-0.3-0.9-0.6c-1.8-1.9-1.9-4.7,3.9-14.1c0.2-0.4,0.7-0.6,1.1-0.5c1.9,0.5,3.7,1.1,5.5,1.9c3.3,1.3,6.4,2.9,9.4,4.8
	c3.8,2.4,7.4,5.3,10.6,8.4c2,2,3.9,4,5.7,6.1c0.3,0.3,0.8,0.6,1.2,0.6c3,0,5.7-1.6,7.2-4.2c0.3-0.7,0.2-1.6-0.3-2.2
	c-2.1-2.9-4.5-5.5-7.1-8c-4.2-4.1-8.8-7.6-13.9-10.5c-4.9-3-10.2-5.2-15.7-6.7c-5.1-1.8-10.4-2.8-15.8-3c-6.1-0.2-8.6-0.3-11.1,0.2
	c-0.8,0.2-1.5,0.7-1.7,1.5c-0.4,1.1-0.4,2.3-0.3,3.5c0.5,2.7,2.9,4.7,5.6,4.7c2.6-0.1,5.1,0,7.7,0.2c2.5,0.8,6.8,1.3,1.1,14.8
	c-0.3,0.6-0.9,1-1.6,0.9c-2.9-0.4-5.9-0.4-8.9-0.1c-4.3,0.3-8.5,1.2-12.6,2.7c-4.4,1.5-8.4,3.7-12.1,6.5c-2.5,1.8-4.8,3.8-6.8,6.2
	c-2.7,1.7-7.3,1.9-12.4-8.7c-0.2-0.5-0.1-1.1,0.3-1.5c1.7-2.1,3.7-3.9,5.8-5.7c3.9-3,5.2-3.9,7.2-5.3c0.4-0.3,0.6-0.9,0.4-1.4
	c-1.1-2.5-3-4.6-5.5-5.9c-0.8-0.4-1.7-0.3-2.4,0.2c-1.4,0.9-2.9,2-5.8,4.3c-2.8,2.3-5.3,4.9-7.6,7.6c-3.2,3.5-5.9,7.3-8.3,11.4
	c-1.4,2.2-2.5,4.6-3.5,7c0.5,2.1,5.5,6.9,8.3,5.9c1.3-3,2.8-5.9,4.5-8.7c0.2-0.3,0.5-0.5,0.8-0.5c6-0.9,8.8,4.1,11.6,8.8
	c0.2,0.3,0.2,0.6,0,0.9c-0.7,1.5-1.2,2.7-2,4.7c-0.7,1.6-1.3,3.3-1.8,5c-0.1,0.4-0.1,0.7,0.1,1c1.8,2.7,5.2,3.9,8.3,2.9
	c0.4-0.2,0.7-0.5,0.9-0.9c0.5-1.6,1.1-3.2,1.8-4.8c1.1-2.4,2.5-4.7,4.2-6.9c2.4-3.3,4.5-5.2,8.4-8.2c5.4-3.9,11.9-6.3,18.5-6.9
	c2.5-0.2,4.9-0.2,7.4,0c2.9,0.3,5.7,0.9,8.5,1.9c2.8,1,5.5,2.3,8.1,3.9C497.2,793.9,498,793.8,498.4,793.3z"/>
<path class="st3" d="M438.7,835.1c-2.2,0-4.4,0.3-6.5,1.1c-1.3,0.5-2,1.8-1.7,3.2c0.6,2.1,1.4,4.1,2.4,6c0.3,0.7,0.2,1.6-0.4,2.1
	c-7.2,6.9-9.6,7.5-13,6.1c-0.4-0.2-0.7-0.5-0.9-0.9c-1.2-2.5-2.2-5.1-3.1-7.7c-1-3.2-1.8-6.5-2.3-9.9c-0.2-1.3-1.3-2.3-2.7-2.4
	c-2.1-0.1-4.2,0.1-6.3,0.5c-0.7,0.1-1.1,0.7-1.1,1.4c0.5,4.3,1.3,8.5,2.6,12.5c1,3.3,2.3,6.5,3.8,9.6c1.6,3.3,3.4,6.5,5.5,9.5
	c1.6,2.6,3.5,5,5.5,7.3c0.3,0.4,0.9,0.5,1.3,0.3c2.2-1.1,4-2.8,5.2-4.8c0.6-0.9,0.6-2.1-0.1-3c-1.1-1.3-2.2-2.6-3.1-4
	c-0.2-0.4-0.2-0.9,0.1-1.2c4-4.4,6.4-6.2,10.7-7.2c1.5-0.3,3,0.2,3.9,1.5c0.8,1.1,1.7,2.2,2.7,3.2c2.6,2.8,5.5,5.2,8.6,7.4
	c4.5,2.8,9.4,5,14.5,6.3c2.9,0.8,5.8,1.2,8.8,1.2c0.4,0,0.8,0.3,1,0.7c2.8,7,2.9,11.9-0.2,14.7c-0.5,0.4-1.1,0.7-1.8,0.6
	c-2.2-0.1-5.8-0.7-8.1-1.1c-0.6-0.1-1.2,0.2-1.4,0.8c-0.5,1.4-0.9,2.8-1.3,4.2c-0.6,2.2,0.8,4.4,3,5c0,0,0,0,0,0l0.3,0.1
	c3.1,0.5,6.3,0.9,9.4,1.1c5.1,0.2,10.2-0.2,15.2-1.2c3-0.6,6-1.4,8.9-2.4c0.4-0.2,0.7-0.5,0.7-1c0.1-3.2-0.8-4.8-3.1-6.8
	c-0.9-0.8-2.1-1-3.3-0.8c-2.6,0.6-5.2,1.2-7.8,1.5c-0.4,0.1-0.7-0.1-0.9-0.4c-2.5-3.5-3.5-6.5-3.1-14.2c0-0.6,0.5-1.1,1.1-1.2
	c1.7-0.2,3.4-0.4,5.1-0.8c0.8-0.2,1.4-0.8,1.5-1.7c0.4-2.7-0.5-5.4-2.5-7.3c-0.3-0.3-0.7-0.4-1.1-0.3c-2.1,0.5-4.2,0.7-6.3,0.9
	c-2.6,0.1-5.2,0-7.8-0.3c-4.5-0.6-8.8-2.1-12.7-4.2c-3-1.6-5.8-3.7-8.2-6.2c-2.5-2.3-4.7-4.9-6.5-7.8c-2.6-4.2-2.7-5.5-3.8-9
	C439.5,835.5,439.1,835.1,438.7,835.1z"/>
<path class="st3" d="M539.6,841.2c-1.1,0.1-2.1,0.8-2.5,1.8c-2,6.4-3.3,9.7-6.6,15.2c-3.6,6.1-8.2,11.5-13.7,16
	c-0.4,0.4-0.6,1-0.4,1.5c0.9,2,2.2,3.8,3.9,5.2c1.2,1,3,1,4.2,0c7.5-6.7,11.8-12,16-19.7c2.2-4,4-8.3,5.5-12.6c1-3-0.7-6.2-3.6-7.1
	c0,0,0,0,0,0c-0.4-0.1-0.8-0.2-1.2-0.2C540.6,841.2,540.1,841.1,539.6,841.2z"/>
<path class="st0" d="M744.8,6.3c-54.5,0-98.7,44.2-98.7,98.7s44.2,98.7,98.7,98.7s98.7-44.2,98.7-98.7c0,0,0,0,0,0
	C843.6,50.5,799.4,6.3,744.8,6.3z M744.8,192.4c-48.2,0-87.3-39.1-87.3-87.3s39.1-87.3,87.3-87.3c48.2,0,87.3,39.1,87.3,87.3
	C832.2,153.2,793.1,192.4,744.8,192.4C744.9,192.4,744.9,192.4,744.8,192.4z"/>
<circle class="st0" cx="744.8" cy="105" r="22.5"/>
<circle class="st0" cx="720.5" cy="35.2" r="7.5"/>
<circle class="st0" cx="808.8" cy="91.3" r="13"/>
<circle class="st0" cx="704.1" cy="168.7" r="6.2"/>
<circle class="st0" cx="687.8" cy="100.7" r="8.8"/>
<circle class="st0" cx="773.8" cy="156.1" r="5.9"/>
<circle class="st0" cx="771.1" cy="87.6" r="3.2"/>
<path class="st0" d="M782.5,96.9c-0.3,0.2-0.4,0.6-0.4,1c0.7,3.4,0.8,6.9,0.5,10.3c-0.3,4.2-1.3,8.2-3.1,12
	c-1.1,2.5-2.5,4.9-4.1,7.1c-0.7,0.9-0.5,2.2,0.4,3c1.7,1.5,3.6,2.9,5.5,4.1c0.5,0.3,1.1,0.2,1.4-0.2c2.2-2.9,4.1-6.1,5.7-9.3
	c2.4-5.4,3.8-11.2,4.2-17.1c0.2-3.6-0.1-7.2-0.7-10.8c-0.2-1.1-1.1-1.8-2.2-1.8C787.3,95.2,784.2,95.5,782.5,96.9z"/>
<path class="st0" d="M767,72.9c1.5-1.8,2.7-3.8,3.5-6.1c0.4-1,0-2.1-1-2.7c-1.7-1-3.4-1.9-5.2-2.7c-1.6-0.7-3.2-1.3-4.8-1.9
	c-0.4-0.1-0.7-0.3-0.9-0.6c-1.8-1.9-1.9-4.7,3.9-14.1c0.2-0.4,0.7-0.6,1.1-0.5c1.9,0.5,3.7,1.1,5.5,1.9c3.3,1.3,6.4,2.9,9.4,4.8
	c3.8,2.4,7.4,5.2,10.6,8.4c3,2.8,4.4,4.8,5.7,6.1c0.3,0.3,0.8,0.6,1.2,0.6c3,0,5.7-1.6,7.2-4.2c0.3-0.7,0.2-1.6-0.3-2.2
	c-2.1-2.9-4.5-5.5-7.1-8c-4.2-4.1-8.8-7.6-13.9-10.5c-4.9-3-10.2-5.2-15.7-6.7c-3.9-1.2-8.1-2.8-15.8-3c-6.1-0.2-8.6-0.3-11.1,0.2
	c-0.8,0.2-1.5,0.7-1.7,1.5c-0.4,1.1-0.4,2.3-0.3,3.5c0.5,2.7,2.9,4.7,5.6,4.7c2.6-0.1,5.1,0,7.7,0.2c2.5,0.8,6.8,1.3,1.1,14.8
	c-0.3,0.6-0.9,1-1.6,0.9c-2.9-0.4-5.9-0.4-8.9-0.1c-4.3,0.3-8.5,1.2-12.6,2.7c-4.4,1.5-8.4,3.7-12.1,6.5c-2.5,1.8-4.8,3.8-6.8,6.2
	c-2.7,1.7-7.3,1.9-12.4-8.7c-0.2-0.5-0.1-1.1,0.3-1.5c1.7-2.1,3.7-4,5.8-5.7c3.9-3,5.2-3.9,7.2-5.3c0.4-0.3,0.6-0.9,0.4-1.4
	c-1.1-2.5-3-4.6-5.5-5.9c-0.8-0.4-1.7-0.3-2.4,0.2c-1.3,0.9-2.9,2-5.8,4.4c-2.8,2.3-5.3,4.9-7.7,7.6c-3.2,3.5-5.9,7.3-8.3,11.4
	c-1.4,2.2-2.5,4.6-3.5,7c0.5,2.1,5.5,6.9,8.3,5.9c1.3-3,2.8-5.9,4.5-8.7c0.2-0.3,0.5-0.5,0.8-0.5c6-0.9,8.8,4.1,11.6,8.8
	c0.2,0.3,0.2,0.6,0,0.9c-0.7,1.4-1.2,2.7-2,4.7c-0.7,1.6-1.3,3.3-1.8,5c-0.1,0.4-0.1,0.7,0.1,1.1c1.8,2.7,5.2,3.9,8.3,2.9
	c0.4-0.2,0.7-0.5,0.9-0.9c0.5-1.6,1.1-3.2,1.8-4.8c1.1-2.4,2.5-4.7,4.2-6.9c2.4-3.3,4.5-5.2,8.4-8.2c5.4-3.9,11.9-6.3,18.5-6.9
	c2.5-0.2,4.9-0.2,7.4,0c2.9,0.3,5.7,0.9,8.5,1.9c2.8,1,5.5,2.3,8.1,3.9C765.8,73.4,766.5,73.4,767,72.9z"/>
<path class="st0" d="M707.3,114.7c-2.2,0-4.4,0.3-6.5,1.1c-1.3,0.5-2,1.8-1.7,3.2c0.6,2.1,1.4,4.1,2.4,6c0.3,0.7,0.2,1.6-0.4,2.2
	c-7.2,6.9-9.7,7.5-13,6.1c-0.4-0.2-0.7-0.5-0.9-0.9c-1.2-2.5-2.2-5.1-3.1-7.7c-1-3.2-1.8-6.5-2.3-9.9c-0.2-1.3-1.3-2.3-2.7-2.4
	c-2.1-0.1-4.2,0.1-6.3,0.5c-0.7,0.1-1.2,0.7-1.1,1.4c0.5,4.3,1.3,8.5,2.6,12.6c1,3.3,2.3,6.5,3.8,9.6c1.6,3.3,3.4,6.5,5.5,9.4
	c1.6,2.6,3.5,5,5.5,7.3c0.3,0.4,0.9,0.5,1.3,0.3c2.2-1.1,4-2.8,5.2-4.8c0.6-0.9,0.6-2.1-0.2-3c-1.1-1.3-2.2-2.6-3.1-4
	c-0.2-0.4-0.2-0.9,0.1-1.2c4-4.4,6.4-6.2,10.7-7.2c1.5-0.3,3,0.2,3.9,1.5c0.8,1.1,1.7,2.2,2.7,3.2c2.6,2.8,5.5,5.2,8.6,7.4
	c4.5,2.8,9.4,4.9,14.5,6.2c2.9,0.8,5.8,1.2,8.8,1.2c0.4,0,0.8,0.3,1,0.7c2.8,7,2.8,11.9-0.2,14.7c-0.5,0.4-1.1,0.7-1.8,0.6
	c-2.2-0.1-5.8-0.7-8.1-1.1c-0.6-0.1-1.2,0.2-1.4,0.8c-0.5,1.4-0.9,2.8-1.3,4.2c-0.6,2.2,0.8,4.4,3,5c0,0,0,0,0,0
	c0.1,0,0.2,0,0.3,0.1c3.1,0.5,6.3,0.9,9.4,1.1c5.1,0.2,10.2-0.2,15.2-1.2c3-0.6,6-1.4,8.9-2.4c0.4-0.2,0.7-0.5,0.7-1
	c0.1-3.2-0.8-4.7-3.2-6.8c-0.9-0.8-2.1-1-3.3-0.8c-2.6,0.6-5.2,1.2-7.8,1.5c-0.4,0.1-0.7-0.1-0.9-0.4c-2.5-3.5-3.5-6.5-3.1-14.2
	c0-0.6,0.5-1.1,1.1-1.2c1.7-0.2,3.4-0.4,5.1-0.8c0.8-0.2,1.4-0.8,1.5-1.6c0.4-2.7-0.5-5.4-2.5-7.4c-0.3-0.3-0.7-0.4-1.1-0.3
	c-2.1,0.5-4.2,0.8-6.3,0.9c-2.6,0.1-5.2,0-7.8-0.3c-4.5-0.6-8.8-2.1-12.7-4.2c-3-1.6-5.8-3.7-8.2-6.2c-2.5-2.3-4.7-4.9-6.5-7.8
	c-2.6-4.2-2.7-5.5-3.8-9C708.1,115,707.7,114.7,707.3,114.7z"/>
<path class="st0" d="M808.2,120.7c-1.1,0.1-2.1,0.8-2.5,1.8c-2,6.4-3.3,9.7-6.6,15.2c-3.6,6.1-8.2,11.5-13.7,16
	c-0.4,0.4-0.6,1-0.4,1.6c0.9,2,2.2,3.8,3.9,5.2c1.2,1,3,1,4.2,0c7.5-6.7,11.8-12,16-19.7c2.2-4,4-8.3,5.5-12.6c1-3-0.7-6.2-3.6-7.1
	c-0.4-0.1-0.8-0.2-1.2-0.2C809.2,120.7,808.7,120.7,808.2,120.7z"/>
<path class="st1" d="M744.8,246.5c-54.5,0-98.7,44.2-98.7,98.7s44.2,98.7,98.7,98.7s98.7-44.2,98.7-98.7l0,0
	C843.6,290.7,799.4,246.5,744.8,246.5C744.9,246.5,744.8,246.5,744.8,246.5z M744.8,432.5c-48.2,0-87.3-39.1-87.3-87.3
	s39.1-87.3,87.3-87.3c48.2,0,87.3,39.1,87.3,87.3C832.2,393.4,793.1,432.5,744.8,432.5C744.9,432.5,744.8,432.5,744.8,432.5z"/>
<circle class="st1" cx="744.8" cy="345.2" r="22.5"/>
<circle class="st1" cx="720.5" cy="275.4" r="7.5"/>
<circle class="st1" cx="808.8" cy="331.5" r="13"/>
<circle class="st1" cx="704.1" cy="408.8" r="6.2"/>
<circle class="st1" cx="687.8" cy="340.9" r="8.8"/>
<circle class="st1" cx="773.8" cy="396.3" r="5.9"/>
<circle class="st1" cx="771.1" cy="327.8" r="3.2"/>
<path class="st1" d="M782.5,337.1c-0.3,0.2-0.4,0.6-0.4,1c0.6,3.4,0.8,6.9,0.5,10.3c-0.3,4.2-1.3,8.2-3.1,12
	c-1.1,2.5-2.5,4.9-4.1,7.1c-0.7,0.9-0.5,2.2,0.4,3c1.7,1.5,3.6,2.9,5.5,4.1c0.5,0.3,1.1,0.2,1.4-0.2c2.2-2.9,4.1-6.1,5.6-9.4
	c2.4-5.4,3.8-11.2,4.2-17.1c0.2-3.6-0.1-7.2-0.7-10.8c-0.2-1.1-1.1-1.8-2.2-1.8C787.3,335.3,784.2,335.6,782.5,337.1z"/>
<path class="st1" d="M767,313.1c1.5-1.8,2.7-3.8,3.5-6.1c0.3-1-0.1-2.2-1-2.7c-1.7-1-3.4-1.9-5.2-2.7c-1.6-0.7-3.2-1.3-4.8-1.9
	c-0.4-0.1-0.7-0.3-0.9-0.6c-1.8-1.9-1.9-4.7,3.9-14.1c0.2-0.4,0.7-0.6,1.1-0.5c1.9,0.5,3.7,1.1,5.5,1.9c3.3,1.3,6.4,2.9,9.4,4.8
	c3.8,2.4,7.4,5.2,10.6,8.4c2,1.9,3.9,4,5.7,6.1c0.3,0.4,0.8,0.6,1.2,0.6c3,0,5.7-1.6,7.2-4.2c0.3-0.7,0.2-1.6-0.3-2.2
	c-2.1-2.9-4.5-5.5-7.1-8c-4.2-4.1-8.8-7.6-13.9-10.5c-4.9-3-10.2-5.2-15.7-6.7c-5.1-1.8-10.4-2.8-15.8-3c-6.1-0.2-8.7-0.3-11.1,0.2
	c-0.8,0.2-1.5,0.7-1.7,1.5c-0.3,1.1-0.4,2.3-0.2,3.5c0.5,2.7,2.9,4.7,5.6,4.7c2.6-0.1,5.1,0,7.7,0.2c2.5,0.9,6.8,1.3,1.1,14.8
	c-0.3,0.6-0.9,1-1.6,0.9c-2.9-0.4-5.9-0.4-8.9-0.1c-4.3,0.3-8.5,1.2-12.6,2.7c-4.4,1.5-8.4,3.7-12.1,6.5c-2.5,1.8-4.8,3.8-6.8,6.2
	c-2.7,1.6-7.3,1.9-12.4-8.6c-0.2-0.5-0.1-1.1,0.3-1.5c1.7-2.1,3.7-4,5.8-5.7c3.9-3,5.2-3.9,7.2-5.3c0.4-0.3,0.6-0.9,0.4-1.4
	c-1.1-2.5-3-4.6-5.5-5.9c-0.8-0.4-1.7-0.3-2.4,0.2c-1.3,0.9-2.9,2-5.8,4.4c-6.3,5.4-11.7,11.9-15.9,19c-1.4,2.2-2.5,4.6-3.5,7
	c0.5,2.1,5.5,6.9,8.3,5.9c1.3-3,2.8-5.9,4.5-8.7c0.2-0.3,0.5-0.5,0.8-0.5c6-0.9,8.8,4.1,11.6,8.8c0.2,0.3,0.2,0.6,0,0.9
	c-0.7,1.5-1.2,2.7-2,4.7c-0.7,1.6-1.3,3.3-1.8,5c-0.1,0.3,0,0.7,0.1,1c1.8,2.7,5.2,3.9,8.3,2.9c0.4-0.2,0.7-0.5,0.9-1
	c0.5-1.6,1-3.2,1.8-4.8c1.1-2.4,2.5-4.7,4.2-6.9c2.4-3.3,4.5-5.2,8.4-8.2c5.4-3.9,11.9-6.3,18.5-6.9c2.5-0.2,4.9-0.2,7.4,0
	c2.9,0.3,5.7,0.9,8.5,1.9c2.8,1,5.5,2.3,8.1,3.9C765.8,313.6,766.5,313.6,767,313.1z"/>
<path class="st1" d="M707.3,354.9c-2.2,0-4.4,0.3-6.5,1.1c-1.3,0.5-2,1.8-1.7,3.1c0.6,2.1,1.4,4.1,2.4,6c0.3,0.7,0.2,1.6-0.4,2.1
	c-7.2,6.9-9.7,7.5-13,6.1c-0.4-0.2-0.7-0.5-0.9-0.9c-1.2-2.5-2.2-5.1-3.1-7.7c-1-3.2-1.8-6.5-2.3-9.9c-0.2-1.3-1.3-2.3-2.7-2.4
	c-2.1-0.1-4.2,0.1-6.3,0.5c-0.7,0.1-1.2,0.7-1.1,1.4c0.5,4.3,1.3,8.5,2.6,12.5c1,3.3,2.2,6.5,3.8,9.6c1.6,3.3,3.4,6.5,5.5,9.5
	c1.6,2.6,3.5,5,5.5,7.3c0.3,0.4,0.9,0.5,1.3,0.3c2.2-1.1,4-2.8,5.2-4.8c0.6-0.9,0.6-2.1-0.2-3c-1.1-1.3-2.2-2.6-3.1-4.1
	c-0.2-0.4-0.2-0.9,0.1-1.2c4-4.4,6.4-6.2,10.7-7.2c1.5-0.3,3,0.2,3.9,1.5c0.8,1.1,1.7,2.2,2.7,3.2c2.6,2.8,5.5,5.2,8.6,7.4
	c4.5,2.8,9.4,5,14.5,6.3c2.9,0.8,5.8,1.2,8.8,1.2c0.4,0,0.8,0.3,1,0.7c2.8,7,2.8,11.9-0.2,14.7c-0.5,0.4-1.1,0.7-1.8,0.6
	c-2.2-0.1-5.8-0.7-8.1-1.1c-0.6-0.1-1.2,0.2-1.4,0.8c-0.5,1.4-1,2.8-1.3,4.2c-0.6,2.2,0.8,4.4,3,5c0,0,0,0,0,0l0.3,0.1
	c3.1,0.5,6.3,0.9,9.4,1.1c5.1,0.2,10.2-0.2,15.2-1.2c3-0.6,6-1.4,8.9-2.4c0.4-0.2,0.7-0.5,0.7-1c0.1-3.2-0.8-4.7-3.2-6.8
	c-0.9-0.8-2.1-1.1-3.2-0.8c-2.6,0.6-5.2,1.2-7.8,1.5c-0.4,0.1-0.7-0.1-0.9-0.4c-2.5-3.5-3.5-6.5-3.1-14.2c0-0.6,0.5-1.1,1.1-1.2
	c1.7-0.2,3.4-0.5,5.1-0.8c0.8-0.2,1.4-0.8,1.5-1.7c0.4-2.7-0.5-5.4-2.5-7.3c-0.3-0.3-0.7-0.4-1.1-0.4c-2.1,0.5-4.2,0.8-6.3,0.9
	c-2.6,0.1-5.2,0-7.8-0.3c-4.5-0.6-8.8-2.1-12.7-4.3c-3-1.6-5.8-3.7-8.2-6.2c-2.5-2.3-4.7-4.9-6.5-7.8c-2.7-4.2-2.7-5.5-3.8-9
	C708.1,355.2,707.8,354.9,707.3,354.9z"/>
<path class="st1" d="M808.2,360.9c-1.1,0.1-2.1,0.8-2.5,1.8c-2,6.4-3.3,9.7-6.6,15.2c-3.6,6.1-8.2,11.5-13.7,16
	c-0.4,0.4-0.6,1-0.4,1.5c0.9,2,2.2,3.8,3.9,5.2c1.2,1,3,1,4.2,0c7.5-6.7,11.8-12,16-19.7c2.2-4,4-8.3,5.4-12.6c1-3-0.6-6.1-3.6-7.1
	c0,0,0,0,0,0c-0.4-0.1-0.8-0.2-1.2-0.2C809.2,360.9,808.7,360.9,808.2,360.9z"/>
<path class="st2" d="M744.8,486.6c-54.5,0-98.7,44.2-98.7,98.7s44.2,98.7,98.7,98.7s98.7-44.2,98.7-98.7l0,0
	C843.6,530.8,799.4,486.6,744.8,486.6z M744.8,672.7c-48.2,0-87.3-39.1-87.3-87.3s39.1-87.3,87.3-87.3c48.2,0,87.3,39.1,87.3,87.3
	C832.2,633.6,793.1,672.7,744.8,672.7C744.9,672.7,744.8,672.7,744.8,672.7z"/>
<circle class="st2" cx="744.8" cy="585.4" r="22.5"/>
<circle class="st2" cx="720.5" cy="515.5" r="7.5"/>
<circle class="st2" cx="808.8" cy="571.7" r="13"/>
<circle class="st2" cx="704.1" cy="649" r="6.2"/>
<circle class="st2" cx="687.8" cy="581" r="8.8"/>
<circle class="st2" cx="773.8" cy="636.5" r="5.9"/>
<circle class="st2" cx="771.1" cy="567.9" r="3.2"/>
<path class="st2" d="M782.5,577.2c-0.3,0.2-0.4,0.6-0.4,1c0.7,3.4,0.8,6.9,0.5,10.3c-0.3,4.2-1.3,8.2-3.1,12c-1.1,2.5-2.5,4.9-4.1,7
	c-0.7,0.9-0.5,2.2,0.4,3c1.7,1.5,3.6,2.9,5.5,4.1c0.5,0.3,1.1,0.2,1.4-0.2c2.2-2.9,4.1-6.1,5.7-9.3c2.4-5.4,3.8-11.2,4.2-17.1
	c0.2-3.6-0.1-7.2-0.7-10.8c-0.2-1.1-1.1-1.8-2.2-1.8C787.3,575.5,784.2,575.8,782.5,577.2z"/>
<path class="st2" d="M767,553.2c1.5-1.8,2.7-3.8,3.5-6c0.4-1,0-2.1-1-2.7c-1.7-1-3.4-1.9-5.2-2.7c-1.6-0.7-3.2-1.3-4.8-1.9
	c-0.4-0.1-0.7-0.3-0.9-0.6c-1.8-1.9-1.9-4.7,3.9-14.1c0.2-0.4,0.7-0.6,1.1-0.5c1.9,0.5,3.7,1.1,5.5,1.9c3.3,1.3,6.4,2.9,9.4,4.8
	c3.8,2.4,7.4,5.2,10.6,8.4c3,2.8,4.4,4.8,5.7,6.1c0.3,0.3,0.8,0.6,1.2,0.6c3,0,5.7-1.6,7.2-4.2c0.3-0.7,0.2-1.6-0.3-2.2
	c-2.1-2.9-4.5-5.5-7.1-8c-4.2-4.1-8.8-7.6-13.9-10.5c-4.9-3-10.2-5.2-15.7-6.7c-3.9-1.2-8.1-2.8-15.8-3c-6.1-0.2-8.6-0.3-11.1,0.2
	c-0.8,0.2-1.5,0.7-1.7,1.5c-0.4,1.1-0.4,2.3-0.3,3.5c0.5,2.7,2.9,4.7,5.6,4.7c2.6-0.1,5.1,0,7.7,0.2c2.5,0.8,6.8,1.3,1.1,14.8
	c-0.3,0.6-0.9,1-1.6,0.9c-2.9-0.4-5.9-0.4-8.9-0.1c-4.3,0.3-8.5,1.2-12.6,2.7c-4.3,1.5-8.4,3.8-12.1,6.5c-2.5,1.8-4.8,3.8-6.8,6.2
	c-2.7,1.7-7.3,1.9-12.4-8.7c-0.2-0.5-0.1-1.1,0.3-1.5c1.7-2.1,3.7-4,5.8-5.7c3.9-3,5.2-3.9,7.2-5.3c0.4-0.3,0.6-0.9,0.4-1.4
	c-1.1-2.5-3-4.6-5.5-5.9c-0.8-0.4-1.7-0.3-2.4,0.2c-1.3,0.9-2.9,2-5.8,4.4c-2.8,2.3-5.3,4.9-7.7,7.6c-3.2,3.5-5.9,7.3-8.3,11.4
	c-1.4,2.2-2.5,4.6-3.5,7c0.5,2.1,5.5,6.9,8.3,5.9c1.3-3,2.8-5.9,4.5-8.7c0.2-0.3,0.5-0.5,0.8-0.5c6-0.9,8.8,4.1,11.6,8.8
	c0.2,0.3,0.2,0.6,0,0.9c-0.7,1.5-1.2,2.7-2,4.7c-0.7,1.6-1.3,3.3-1.8,5c-0.1,0.3,0,0.7,0.1,1c1.8,2.7,5.2,3.9,8.3,2.9
	c0.4-0.2,0.7-0.5,0.9-1c0.5-1.6,1.1-3.2,1.8-4.8c1.1-2.4,2.5-4.7,4.2-6.9c2.4-3.3,4.5-5.2,8.4-8.2c5.4-3.9,11.9-6.3,18.5-6.9
	c2.5-0.2,4.9-0.2,7.4,0c2.9,0.3,5.7,0.9,8.5,1.9c2.8,1,5.5,2.3,8.1,3.9C765.8,553.7,766.5,553.7,767,553.2z"/>
<path class="st2" d="M707.3,595c-2.2,0-4.4,0.3-6.5,1.1c-1.3,0.5-2,1.8-1.7,3.2c0.6,2.1,1.4,4.1,2.4,6c0.3,0.7,0.2,1.6-0.4,2.2
	c-7.2,6.9-9.7,7.5-13,6.1c-0.4-0.2-0.7-0.5-0.9-0.9c-1.2-2.5-2.2-5.1-3.1-7.7c-1-3.2-1.7-6.5-2.2-9.9c-0.2-1.3-1.3-2.3-2.7-2.4
	c-2.1-0.1-4.2,0.1-6.3,0.5c-0.7,0.1-1.2,0.7-1.1,1.4c0.4,4.3,1.3,8.5,2.6,12.5c1,3.3,2.3,6.5,3.8,9.6c1.6,3.3,3.4,6.5,5.5,9.5
	c1.6,2.6,3.5,5,5.5,7.3c0.3,0.4,0.9,0.5,1.3,0.3c2.2-1.1,4-2.8,5.2-4.8c0.6-0.9,0.6-2.1-0.2-3c-1.1-1.3-2.2-2.6-3.1-4
	c-0.2-0.4-0.2-0.9,0.1-1.2c4-4.4,6.4-6.2,10.7-7.2c1.5-0.3,3,0.2,3.9,1.5c0.8,1.1,1.7,2.2,2.7,3.2c2.6,2.8,5.5,5.2,8.6,7.4
	c4.5,2.8,9.4,4.9,14.5,6.2c2.9,0.8,5.8,1.2,8.8,1.2c0.4,0,0.8,0.3,1,0.7c2.8,7,2.8,11.9-0.2,14.7c-0.5,0.4-1.1,0.7-1.8,0.6
	c-2.2-0.1-5.8-0.7-8.1-1.1c-0.6-0.1-1.2,0.2-1.4,0.8c-0.5,1.4-0.9,2.8-1.3,4.2c-0.6,2.2,0.8,4.4,3,5c0,0,0,0,0,0
	c0.1,0,0.2,0,0.3,0.1c3.1,0.5,6.3,0.9,9.4,1.1c5.1,0.2,10.2-0.2,15.2-1.2c3-0.6,6-1.4,8.9-2.4c0.4-0.2,0.7-0.5,0.7-1
	c0.1-3.2-0.8-4.7-3.2-6.8c-0.9-0.8-2.1-1-3.3-0.8c-2.6,0.6-5.2,1.2-7.8,1.5c-0.4,0.1-0.7-0.1-0.9-0.4c-2.5-3.5-3.5-6.5-3.1-14.2
	c0-0.6,0.5-1.1,1.1-1.2c1.7-0.2,3.4-0.4,5.1-0.8c0.8-0.2,1.4-0.8,1.5-1.7c0.4-2.7-0.5-5.4-2.5-7.3c-0.3-0.3-0.7-0.4-1.1-0.3
	c-2.1,0.5-4.2,0.8-6.3,0.9c-2.6,0.1-5.2,0-7.8-0.3c-4.5-0.6-8.8-2.1-12.7-4.2c-3-1.6-5.8-3.7-8.2-6.2c-2.5-2.3-4.7-4.9-6.5-7.8
	c-2.6-4.2-2.7-5.5-3.8-9C708.1,595.3,707.7,595,707.3,595z"/>
<path class="st2" d="M808.2,601.1c-1.1,0.1-2.1,0.8-2.5,1.8c-2,6.4-3.3,9.7-6.6,15.2c-3.6,6.1-8.2,11.5-13.7,16
	c-0.4,0.4-0.6,1-0.4,1.5c0.9,2,2.2,3.8,3.9,5.2c1.2,1,3,1,4.2,0c7.5-6.7,11.8-12,16-19.7c2.2-4,4-8.3,5.5-12.6c1-3-0.7-6.2-3.6-7.1
	c-0.4-0.1-0.8-0.2-1.2-0.2C809.2,601.1,808.7,601.1,808.2,601.1z"/>
<path class="st3" d="M744.8,726.8c-54.5,0-98.7,44.2-98.7,98.8c0,54.5,44.2,98.7,98.8,98.7c54.5,0,98.7-44.2,98.7-98.7
	C843.6,771,799.4,726.8,744.8,726.8C744.9,726.8,744.8,726.8,744.8,726.8z M744.8,912.9c-48.2,0-87.3-39.1-87.3-87.3
	s39.1-87.3,87.3-87.3s87.3,39.1,87.3,87.3C832.2,873.8,793.1,912.9,744.8,912.9C744.8,912.9,744.8,912.9,744.8,912.9z"/>
<circle class="st3" cx="744.8" cy="825.5" r="22.5"/>
<circle class="st3" cx="720.5" cy="755.7" r="7.5"/>
<circle class="st3" cx="808.8" cy="811.8" r="13"/>
<circle class="st3" cx="704.1" cy="889.2" r="6.2"/>
<circle class="st3" cx="687.8" cy="821.2" r="8.8"/>
<circle class="st3" cx="773.8" cy="876.6" r="5.9"/>
<circle class="st3" cx="771.1" cy="808.1" r="3.2"/>
<path class="st3" d="M782.5,817.4c-0.3,0.2-0.4,0.6-0.4,1c0.6,3.4,0.8,6.9,0.5,10.3c-0.3,4.2-1.3,8.2-3.1,12
	c-1.1,2.5-2.5,4.9-4.1,7.1c-0.7,0.9-0.5,2.2,0.4,3c1.8,1.5,3.6,2.9,5.5,4.1c0.5,0.3,1.1,0.2,1.4-0.2c2.2-2.9,4.1-6.1,5.6-9.3
	c2.4-5.4,3.8-11.2,4.2-17.2c0.2-3.6-0.1-7.2-0.7-10.8c-0.2-1-1.1-1.8-2.2-1.8C787.3,815.6,784.2,816,782.5,817.4z"/>
<path class="st3" d="M767,793.4c1.5-1.8,2.7-3.8,3.5-6.1c0.3-1-0.1-2.2-1-2.7c-1.7-1-3.4-1.9-5.2-2.7c-1.6-0.7-3.2-1.3-4.8-1.9
	c-0.4-0.1-0.7-0.3-0.9-0.6c-1.8-1.9-1.9-4.7,3.9-14.1c0.2-0.4,0.7-0.6,1.1-0.5c1.9,0.5,3.7,1.1,5.5,1.9c3.3,1.3,6.4,2.9,9.4,4.8
	c3.8,2.4,7.4,5.2,10.6,8.4c2,1.9,3.9,4,5.7,6.1c0.3,0.4,0.8,0.6,1.2,0.6c3,0,5.7-1.6,7.2-4.2c0.3-0.7,0.2-1.6-0.3-2.2
	c-2.1-2.9-4.5-5.5-7.1-8c-4.2-4.1-8.8-7.6-13.9-10.5c-4.9-3-10.2-5.2-15.7-6.7c-5.1-1.8-10.4-2.8-15.8-3c-6.1-0.2-8.7-0.3-11.1,0.2
	c-0.8,0.2-1.5,0.7-1.7,1.5c-0.3,1.1-0.4,2.3-0.2,3.5c0.5,2.7,2.9,4.7,5.6,4.7c2.6-0.1,5.1,0,7.7,0.2c2.5,0.9,6.8,1.3,1.1,14.8
	c-0.3,0.6-0.9,1-1.5,0.9c-2.9-0.4-5.9-0.4-8.9-0.1c-4.3,0.3-8.5,1.2-12.6,2.7c-4.4,1.5-8.4,3.7-12.1,6.5c-2.5,1.8-4.8,3.8-6.8,6.2
	c-2.7,1.6-7.3,1.9-12.4-8.7c-0.2-0.5-0.1-1.1,0.3-1.5c1.8-2.1,3.7-4,5.8-5.7c3.9-3,5.2-3.9,7.2-5.3c0.4-0.3,0.6-0.9,0.4-1.4
	c-1.1-2.5-3.1-4.6-5.5-5.9c-0.8-0.4-1.7-0.3-2.4,0.2c-1.3,0.9-2.9,2-5.8,4.3c-2.8,2.3-5.3,4.9-7.7,7.6c-3.2,3.5-5.9,7.3-8.2,11.4
	c-1.4,2.2-2.5,4.6-3.5,7c0.5,2.1,5.5,6.9,8.3,5.9c1.2-3,2.8-5.9,4.5-8.7c0.2-0.3,0.5-0.5,0.8-0.5c6-0.9,8.8,4.1,11.6,8.8
	c0.2,0.3,0.2,0.6,0,0.9c-0.7,1.5-1.2,2.7-2,4.7c-0.7,1.6-1.3,3.3-1.8,5c-0.1,0.3,0,0.7,0.1,1c1.8,2.7,5.2,3.9,8.3,2.9
	c0.4-0.2,0.8-0.5,0.9-1c0.5-1.6,1-3.2,1.8-4.8c1.1-2.4,2.5-4.7,4.2-6.9c2.4-3.3,4.5-5.2,8.4-8.2c5.4-3.9,11.9-6.3,18.5-6.9
	c2.5-0.2,4.9-0.2,7.4,0c2.9,0.3,5.7,0.9,8.5,1.9c2.8,1,5.5,2.3,8.1,3.9C765.8,793.9,766.5,793.8,767,793.4z"/>
<path class="st3" d="M707.3,835.2c-2.2,0-4.4,0.3-6.5,1.1c-1.3,0.4-2,1.8-1.7,3.2c0.6,2.1,1.4,4.1,2.4,6c0.3,0.7,0.2,1.6-0.4,2.2
	c-7.2,6.9-9.7,7.5-13,6.1c-0.4-0.2-0.7-0.5-0.9-0.9c-1.2-2.5-2.2-5.1-3.1-7.7c-1-3.2-1.8-6.5-2.3-9.9c-0.2-1.3-1.3-2.3-2.7-2.4
	c-2.1-0.1-4.2,0.1-6.3,0.5c-0.7,0.1-1.2,0.7-1.1,1.4c0.5,4.3,1.3,8.5,2.6,12.5c1,3.3,2.2,6.5,3.8,9.6c1.6,3.3,3.4,6.5,5.5,9.5
	c1.6,2.6,3.5,5,5.5,7.3c0.3,0.4,0.9,0.5,1.3,0.3c2.2-1.1,4-2.8,5.2-4.8c0.6-0.9,0.6-2.1-0.2-3c-1.1-1.3-2.2-2.6-3.1-4.1
	c-0.2-0.4-0.2-0.9,0.1-1.2c4-4.4,6.4-6.2,10.7-7.2c1.5-0.3,3,0.2,3.9,1.5c0.8,1.1,1.7,2.2,2.7,3.2c2.6,2.8,5.5,5.2,8.6,7.4
	c4.5,2.8,9.4,5,14.5,6.3c2.9,0.8,5.8,1.2,8.8,1.2c0.4,0,0.8,0.3,1,0.7c2.8,7,2.8,11.9-0.2,14.7c-0.5,0.4-1.1,0.7-1.8,0.6
	c-2.2-0.1-5.8-0.7-8.1-1.1c-0.6-0.1-1.2,0.2-1.4,0.8c-0.5,1.4-1,2.8-1.3,4.2c-0.6,2.2,0.8,4.4,3,5c0,0,0,0,0,0l0.3,0.1
	c3.1,0.5,6.3,0.9,9.4,1.1c5.1,0.2,10.2-0.2,15.2-1.2c3-0.6,6-1.4,8.9-2.4c0.4-0.1,0.7-0.5,0.7-1c0.1-3.2-0.8-4.7-3.2-6.8
	c-0.9-0.8-2.1-1.1-3.2-0.8c-2.6,0.6-5.2,1.2-7.8,1.5c-0.4,0.1-0.7-0.1-0.9-0.4c-2.5-3.5-3.5-6.5-3.1-14.2c0-0.6,0.5-1.1,1.1-1.2
	c1.7-0.2,3.4-0.5,5.1-0.8c0.8-0.2,1.4-0.8,1.5-1.7c0.4-2.7-0.5-5.4-2.5-7.3c-0.3-0.3-0.7-0.4-1.1-0.3c-2.1,0.5-4.2,0.8-6.3,0.9
	c-2.6,0.1-5.2,0-7.8-0.3c-4.5-0.6-8.8-2.1-12.7-4.3c-3-1.6-5.8-3.7-8.2-6.2c-2.5-2.3-4.7-4.9-6.5-7.8c-2.7-4.2-2.7-5.5-3.8-9
	C708.1,835.5,707.8,835.2,707.3,835.2z"/>
<path class="st3" d="M808.2,841.2c-1.1,0.1-2.1,0.8-2.5,1.8c-2,6.4-3.3,9.7-6.6,15.2c-3.6,6.1-8.2,11.5-13.7,16
	c-0.4,0.4-0.6,1-0.4,1.5c0.9,2,2.2,3.8,3.9,5.2c1.2,1,3,1,4.2,0c7.5-6.7,11.8-12,16-19.7c2.2-4,4.1-8.3,5.5-12.6
	c1-3-0.6-6.1-3.6-7.1c0,0,0,0,0,0c-0.4-0.1-0.8-0.2-1.2-0.2C809.2,841.2,808.7,841.2,808.2,841.2z"/>
<line class="st4" x1="96.4" y1="6.1" x2="8.4" y2="109.5"/>
<line class="st4" x1="100" y1="198" x2="6" y2="100.5"/>
<line class="st4" x1="95.8" y1="253.7" x2="7.8" y2="357"/>
<line class="st4" x1="99.4" y1="445.6" x2="5.4" y2="348"/>
<line class="st4" x1="96.4" y1="493.8" x2="8.4" y2="597.2"/>
<line class="st4" x1="100" y1="685.7" x2="6" y2="588.2"/>
<line class="st4" x1="100.1" y1="734" x2="12.1" y2="837.3"/>
<line class="st4" x1="103.7" y1="925.9" x2="9.7" y2="828.4"/>
<line class="st4" x1="872.8" y1="4.9" x2="960.9" y2="108.2"/>
<line class="st4" x1="869.3" y1="196.8" x2="963.2" y2="99.2"/>
<line class="st4" x1="873.5" y1="252.4" x2="961.5" y2="355.7"/>
<line class="st4" x1="869.9" y1="444.3" x2="963.8" y2="346.8"/>
<line class="st4" x1="872.8" y1="492.6" x2="960.9" y2="595.9"/>
<line class="st4" x1="869.3" y1="684.5" x2="963.2" y2="586.9"/>
<line class="st4" x1="869.2" y1="732.7" x2="957.2" y2="836.1"/>
<line class="st4" x1="865.6" y1="924.6" x2="959.5" y2="827.1"/>
</svg>
