<?xml version="1.0" encoding="utf-8"?>
<!-- Generator: Adobe Illustrator 25.1.0, SVG Export Plug-In . SVG Version: 6.00 Build 0)  -->
<svg version="1.1" id="Layer_1" xmlns="http://www.w3.org/2000/svg" xmlns:xlink="http://www.w3.org/1999/xlink" x="0px" y="0px"
	 viewBox="0 0 870.4 791.5" style="enable-background:new 0 0 870.4 791.5;" xml:space="preserve">
<style type="text/css">
	.st0{fill:#939598;stroke:#2E3192;stroke-width:11;stroke-miterlimit:10;}
	.st1{fill:none;stroke:#2E3192;stroke-width:11;stroke-miterlimit:10;}
	.st2{fill:#BE1E2D;}
</style>
<path class="st0" d="M111.4,163.6L868.2,5.4C493.1,166.4,459,636.7,743.5,777.2L236,671.3C-26.2,561.9-60.4,252.6,111.4,163.6z"/>
<path class="st1" d="M272.9,129.8c-215.1,104.4-195.5,448,71.5,564.1"/>
<path class="st1" d="M489.8,84.5c-273.4,125-273.4,514.8,0,639.8"/>
<path class="st1" d="M683.6,43.1c-328.1,141.4-346.5,574.4-66.4,707.7"/>
<path class="st1" d="M12.9,408.6l545.9-11.4"/>
<path class="st1" d="M31.5,243.2l650.2-104.5"/>
<path class="st1" d="M102.2,579.5l503.9,70.6"/>
<path class="st2" d="M408.1,135.8c-74.1,14.8-169.4,47.7-236.9,94.7c-68.5,47-109.3,108.1-98.8,178
	c19,141.1,229.2,245.4,335.7,264.4c55.4,8.7,71.8-2.7,77.3-49.3c5.5-45.2,0.2-125.7,11.7-223.4c8.5-97.6,30.4-179.3,24.6-223.5
	C516.9,130.9,484.5,122.6,408.1,135.8z M381.2,647.9c-94-15.9-269.2-113.1-284.3-239.8c-8.3-63.2,26.6-118.9,84.3-161.9
	c56.9-43,136.6-73.4,200-85.2c65.1-10.7,95.6,0.3,103.5,42.3c8.6,40.9-5.5,112.8-12.2,197.4c-9,84.8-7.8,156-16.1,197.9
	C448.1,641.4,430.1,655,381.2,647.9z"/>
<path class="st2" d="M291.1,336.6c28.2-2.2,43,27.5,41.9,66.8s-16.2,69.8-41.9,68.7c-25.5-1-53.6-30.7-54.7-66.8
	C235.1,369.3,263.1,338.8,291.1,336.6z"/>
<path class="st2" d="M298.1,194.9c10.7-1.8,13,4.8,6.1,15.1s-20,20.2-30.2,21.6s-13.9-5.9-7.5-15.8S287.5,196.7,298.1,194.9z"/>
<path class="st2" d="M438.5,312.8c16.4-1.4,23.1,17.1,18.3,41.6s-18.9,44.7-34.3,44.9s-27-18.6-23-42S422.2,314.1,438.5,312.8z"/>
<path class="st2" d="M244.8,563.4c6.9,0.7,16.7,8.6,22.4,17.3s5.2,14.7-1.6,13.8s-17.6-8.3-23.3-16.8S237.9,562.7,244.8,563.4z"/>
<path class="st2" d="M161.2,370.9c10.7-0.6,18.7,9.9,19.1,23.4s-6.8,24.6-17.1,24.6s-20.1-10.5-20.8-23.5S150.6,371.5,161.2,370.9z"
	/>
<path class="st2" d="M369.2,543.4c6.6,0.5,14.7,8.8,18.7,18.3s2.4,16.4-4.1,15.7s-15.5-8.7-19.6-18S362.7,542.9,369.2,543.4z"/>
<path class="st2" d="M348.8,338.1c4-0.3,6.3,4.1,5.3,9.8s-4.9,10.4-8.9,10.6s-6.5-4.2-5.5-9.8S344.8,338.4,348.8,338.1z"/>
<path class="st2" d="M367.7,376.6c-0.8,0.9-1.2,2.1-1.1,3.3c0.3,11,0,22.1-0.9,33.1c-1,15.5-2.3,23.4-5.1,38.3
	c-1.5,7.5-3.5,14.8-5.9,22.1c-0.8,3.3,0,6.8,2.3,9.3c4.4,4.7,9,9.1,13.9,13.3c1.1,1,2.3,0.7,2.7-0.6c2.6-8.9,4.9-18.7,7-29.2
	c3.4-17.9,5.7-43.5,6.5-55.5c0.8-11.8,1.2-23.6,1.2-35.1c0-3.4-1.7-5.8-4-5.5C379,370.5,372.1,371.8,367.7,376.6z"/>
<path class="st2" d="M348.6,303.5c5.3-6,10-12.4,14.2-19.1c1.9-3.1,2.3-6.5,0.9-7.9c-2.7-2.5-5.8-4.7-9-6.6
	c-2.9-1.7-5.9-3.1-9.1-4.2c-0.7-0.2-1.2-0.8-1.4-1.5c-1.5-5,0.6-13.1,29.6-41.1c0.9-1,2.1-1.6,3.4-1.6c2.6,0.3,5.7,1.3,10.3,3.4
	c5.7,2.5,10.9,6.2,15,10.8c5.4,5.9,9.6,13.2,12.9,22c3,7.9,3.9,13.5,5.1,17.5c0.2,1,1.1,1.6,2.1,1.5c6.1-0.1,16.4-7.3,22.3-15
	c1.8-2.4,2.8-5,2.5-6.8c-0.7-7.6-2.3-15.1-4.6-22.4c-5.4-16.5-10.7-20.9-15.5-26c-8.1-8.7-19-10.9-26.5-12.5s-15.1-4-34.2-1.6
	c-15.2,2-21.5,2.9-28.6,5.1c-2.7,0.9-5.1,2.4-7,4.4c-2.6,2.6-4.8,5.6-6.6,8.9c-3.4,6.8-0.6,11.2,6.3,10.1c6.2-1.1,12.4-1.8,18.6-2.1
	c5.3,1.6,13.1,0.6-18.9,40.6c-1.4,1.9-3.4,3.1-4.9,3c-3.4-0.3-9.1-0.1-21,2.3c-11.3,2.3-22.3,6-32.8,10.9
	c-12.3,5.6-23.8,12.7-34.4,21c-11.9,9.4-16.4,14.2-20.1,18.4c-6.9,5.2-18.3,6.4-22.5-20.6c0-1.5,0.7-3,1.8-4
	c5.8-5.9,12.1-11.4,18.7-16.4c12.2-9,16.4-11.6,22.8-16c1.3-0.8,2.2-2.2,2.6-3.7c0.5-5.1-1.7-11.1-6-13.2c-1.4-0.7-3.8-0.2-6.2,1.3
	c-4.4,2.7-9.6,6-19.3,12.8c-9.2,6.6-17.9,13.7-26.1,21.5c-10.4,9.4-19.8,19.8-28,31.2c-4.5,6-8.4,12.3-11.7,18.9
	c0.3,5.3,9.8,17.2,16.5,14.1c4.2-8.3,7.6-15.5,14.1-24.1c0.5-0.7,1.3-1.3,2.1-1.5c14.4-3.7,17.6,9.2,21.9,21.6
	c0.3,0.9,0.1,1.8-0.3,2.6c-2.2,4.1-3.7,7.8-6,13.3c-2,4.6-3.7,9.3-5.2,14.2c-0.3,1-0.2,2,0.1,2.9c3.2,7.2,11.7,10.7,17.9,7.4
	c1-0.6,1.8-1.6,2.1-2.8c1.4-4.7,2.1-7.8,4.8-13.8c2.5-5.4,4.2-9.2,11.7-20c6.9-9.8,12.6-15.4,23.5-24.6c6.5-5.4,13.6-10.1,21.2-13.9
	c8.4-4.7,17.5-7.9,27-9.7c5.6-1.2,11.4-1.7,17.2-1.6c6.1,0.2,12.1,1.4,17.7,3.6c5.6,2.3,10.6,5.7,14.9,10
	C345.5,305.4,347.2,305,348.6,303.5z"/>
<path class="st2" d="M206.5,433.4c-4.6-0.1-9.1,0.9-13.2,3c-2.6,1.2-3.5,5.1-2.1,8.8c2.2,5.8,5,11.4,8.3,16.8c1.1,1.8,1.4,4,0.6,6
	c-10,18.6-14,19.7-22.2,15.6c-1-0.6-1.9-1.4-2.6-2.4c-4.5-6.8-8.5-13.8-12.2-21.1c-4.2-8.7-7.7-17.7-10.3-26.9
	c-1.1-3.6-3.8-6.3-6.7-6.5c-4.5-0.2-8.9,0.3-13.2,1.3c-1.4,0.3-2.1,1.9-1.7,3.7c1.8,7.3,4.9,17.1,13.1,33.6c4.6,9,10,17.7,16,25.8
	c5.4,7.7,11.4,14.9,21.2,25.5c6.3,7,13,13.6,20.1,19.7c1.2,1,2.4,1.4,3,0.9c3.3-2.6,4.3-7,4.6-11.7c0.1-2.3-1.4-5.6-3.8-8
	c-3.7-3.6-7.3-7.3-10.7-11.2c-0.8-0.8-1.2-2-1-3.2c3.8-11.3,7.5-16.2,15.4-18.5c2.8-0.8,6.4,0.9,9.2,4.4c2.6,3.2,5.3,6.2,8.2,9
	c5.8,5.7,15.3,14.9,24.9,21.7c11.3,8,23.6,14.7,36.5,19.7c10.8,4.2,13.8,4.1,19.3,4.9c1.1,0.4,2.1,1.1,2.8,2.1
	c14.3,20.2,21.9,33.3,20.4,40.1c-0.2,1.1-1.1,1.5-2.5,1.2c-4.7-0.9-12.7-3.2-17.9-4.8c-1.4-0.4-2,0.3-1.5,1.8
	c1.2,3.6,2.7,7,4.4,10.4c2.7,5.5,9.5,11.4,14.9,13.3c0.2,0.1,0.5,0.2,0.7,0.2c7.2,2.2,14.1,4,20.7,5.3c8.5,1.2,17.6,2.7,28,1.2
	c4.7-0.6,9.2-1.9,13.5-3.8c0.6-0.3,0.5-1.2-0.3-2.5c-5.3-8.6-9.5-13-17.3-19c-3-2.3-5.8-3.4-7.7-2.8c-4.3,1.2-8.7,2-13.2,2.4
	c-0.9-0.1-1.8-0.5-2.4-1.2c-10.3-10.1-17.4-18.3-26.1-39.9c-0.7-1.7-0.3-3,0.8-3.2c3.1-0.2,6.2-0.7,9.3-1.5c1.4-0.4,1.9-2.2,1.2-4.5
	c-2.4-8.2-6.7-15.6-12.5-21.8c-0.6-0.8-1.6-1.2-2.6-1.2c-3.9,1.1-7.9,1.7-12,1.7c-5.4-0.1-10.9-0.7-16.1-2
	c-11.1-2.7-20-7.6-29.9-13.8c-9.1-5.7-14.4-11-21.9-18.4c-7.1-6.8-13.4-14.4-18.7-22.7c-7.9-12-8.6-15.7-12.4-25.7
	C208.4,434.4,207.5,433.6,206.5,433.4z"/>
<path class="st2" d="M420.9,454c-2.3,0.2-4.2,2.5-4.7,5.9c-2.4,21-3.2,31.5-6.4,48.8c-3.5,21.2-6.7,32.7-12.9,47.3
	c-0.4,1.1,0,2.8,1,4.5c4,5.9,8.9,11.3,14.4,15.9c3.8,3.2,7.3,3.5,8.3,0.8c6.2-18.2,9.2-33.9,11.8-57.8c1.5-12.6,2.7-26.2,3.9-40.6
	c0.8-9.8-3.3-20.5-9.7-23.8c-0.8-0.4-1.7-0.7-2.6-0.9C422.9,454,421.9,454,420.9,454z"/>
</svg>
