<?xml version="1.0" encoding="utf-8"?>
<!-- Generator: Adobe Illustrator 25.1.0, SVG Export Plug-In . SVG Version: 6.00 Build 0)  -->
<svg version="1.1" id="Layer_1" xmlns="http://www.w3.org/2000/svg" xmlns:xlink="http://www.w3.org/1999/xlink" x="0px" y="0px"
	 viewBox="0 0 541.4 541.4" style="enable-background:new 0 0 541.4 541.4;" xml:space="preserve">
<style type="text/css">
	.st0{fill:#BE1E2D;}
</style>
<path class="st0" d="M270.7,0C121.2,0,0,121.2,0,270.7s121.2,270.7,270.7,270.7s270.7-121.2,270.7-270.7S420.2,0,270.7,0z
	 M270.7,510.2C138.5,510.2,31.3,403,31.3,270.7S138.5,31.3,270.7,31.3s239.5,107.2,239.5,239.4S403,510.2,270.7,510.2z"/>
<circle class="st0" cx="270.7" cy="270.7" r="61.6"/>
<circle class="st0" cx="204.1" cy="79.3" r="20.6"/>
<circle class="st0" cx="446" cy="233.1" r="35.7"/>
<circle class="st0" cx="159.1" cy="445.1" r="17.1"/>
<circle class="st0" cx="114.2" cy="258.9" r="24"/>
<circle class="st0" cx="350.1" cy="410.8" r="16.1"/>
<circle class="st0" cx="342.7" cy="222.9" r="8.9"/>
<path class="st0" d="M373.9,248.4c-0.8,0.7-1.2,1.7-1,2.8c1.8,9.3,2.2,18.8,1.3,28.2c-1.1,13.2-3.1,20-8.4,32.8
	c-2.9,7-7.4,13.8-11.2,19.4c-1.8,2.6-1.4,6.1,1,8.1c4.8,4.1,9.8,7.8,15.1,11.3c1.2,0.8,2.9,0.5,3.8-0.7c6-8,11.2-16.6,15.5-25.6
	c7.6-15.4,11.1-37,11.5-47c0.5-9.9-0.1-19.8-1.9-29.5c-0.5-2.9-3.1-4.9-6-4.8C387.2,243.6,378.8,244.5,373.9,248.4z"/>
<path class="st0" d="M331.6,182.6c4.2-4.9,7.4-10.5,9.6-16.6c1-2.8-0.1-5.9-2.6-7.4c-4.6-2.7-9.3-5.1-14.2-7.3
	c-4.3-2-8.8-3.7-13.3-5.1c-1-0.3-1.8-0.9-2.5-1.6c-4.8-5.2-5.2-12.8,10.7-38.6c0.6-1,1.8-1.5,3-1.3c3.4,0.8,7.9,2.3,15,5.1
	c9,3.6,17.6,8,25.7,13.2c10.5,6.6,20.2,14.3,29.1,23c8.1,7.8,12,13,15.5,16.8c0.9,1,2.1,1.5,3.4,1.6c7.5,0.5,16.6-5.1,19.7-11.5
	c0.9-2,0.6-4.3-0.7-6c-5.9-7.8-12.4-15.1-19.6-21.8c-17.8-16.9-28.2-22.6-38.1-28.8c-16.9-10.6-32.5-15.2-43.1-18.4
	s-22.2-7.6-43.4-8.2c-16.8-0.6-23.7-0.7-30.5,0.6c-2.2,0.4-4,2-4.7,4.1c-1,3.1-1.2,6.3-0.7,9.5c1.3,7.5,7.8,13,15.4,12.9
	c7-0.2,14.1,0,21.1,0.6c6.8,2.3,18.8,3.5,2.9,40.6c-0.7,1.7-2.5,2.7-4.4,2.4c-4.3-0.7-11.1-1.2-24.3-0.2
	c-11.8,0.9-23.4,3.3-34.5,7.4c-11.9,4.2-23.2,10.2-33.3,17.9c-11.1,8.5-15.4,13-18.6,16.9c-7.3,4.5-19.9,5.3-33.9-23.7
	c-0.6-1.4-0.3-3,0.7-4.1c3.7-4,8.6-9.9,15.8-15.5c10.6-8.4,14.2-10.7,19.7-14.6c1.2-0.9,1.6-2.4,1.1-3.8c-2.2-5.6-8.4-13-15-16.3
	c-2.1-1-4.7-0.8-6.6,0.5c-3.7,2.5-7.9,5.5-15.8,11.9c-7.6,6.4-14.6,13.3-21,20.9c-8.7,9.5-16.3,20-22.6,31.2
	c-3.8,6.1-7,12.5-9.7,19.2c1.5,5.7,15,18.9,22.7,16.2c3.9-8.2,6.6-15.4,12.3-23.9c0.5-0.8,1.3-1.3,2.2-1.4
	c16.5-2.5,24.1,11.3,31.7,24c0.5,0.8,0.5,1.7,0.1,2.6c-2,4-3.2,7.5-5.4,12.8c-1.8,4.5-3.6,9.1-5,13.7c-0.3,1-0.2,2,0.4,2.9
	c4.4,7.3,15.1,10.9,22.8,8c1.2-0.5,2-1.4,2.4-2.6c1.5-4.4,2.1-7.5,4.8-13.2c2.4-5.1,4.2-8.7,11.5-18.8c6.6-9.1,12.3-14.2,23-22.4
	c5.4-4.1,11.6-7.8,21.5-11.8c9.3-4,19.2-6.4,29.3-7c6.8-0.6,13.6-0.6,20.3,0.1c7.9,0.8,15.7,2.6,23.2,5.1
	c7.8,2.7,15.2,6.3,22.2,10.7C328.5,184.1,330.4,183.9,331.6,182.6z"/>
<path class="st0" d="M167.9,297.2c-5.9-0.3-12.4,1.1-17.7,3c-3.6,1.2-5.6,5-4.6,8.6c1.5,5.7,3.7,11.2,6.5,16.3c0.9,2,0.5,4.3-1,5.9
	c-19.7,18.9-26.5,20.5-35.6,16.7c-1.1-0.5-1.9-1.3-2.4-2.4c-3.2-6.9-6-13.9-8.4-21.1c-2.8-8.9-4.8-17.9-6.2-27.1
	c-0.6-3.6-3.6-6.4-7.3-6.5c-5.8-0.2-11.6,0.3-17.3,1.3c-1.8,0.3-3.1,2-3,3.8c0.6,7.5,2.3,17.6,7.2,34.4c3.8,13,7.9,20.9,10.4,26.4
	c3.6,7.9,7.9,15.2,15.1,25.9c4.9,7.3,8.1,12.2,15.1,19.9c0.9,1,2.4,1.3,3.6,0.7c6.6-3.2,11-8.1,14.4-13.2c1.7-2.5,1.5-5.9-0.4-8.2
	c-3.1-3.5-6-7.2-8.5-11.1c-0.6-1-0.5-2.4,0.3-3.3c10.9-12,17.7-17.1,29.3-19.8c4-0.9,8.2,0.7,10.6,4c2.2,3.1,4.6,6,7.3,8.7
	c5.4,5.4,14,14.1,23.6,20.4c12.3,7.8,25.7,13.6,39.8,17.2c12.6,3.3,17,3,24.2,3.3c1.2,0.1,2.2,0.8,2.7,1.9
	c7.7,19.3,7.8,32.5-0.5,40.4c-1.3,1.2-3,1.9-4.8,1.7c-6.1-0.4-15.9-1.9-22.2-3c-1.7-0.3-3.3,0.7-3.9,2.2c-1.4,3.8-2.6,7.6-3.6,11.5
	c-1.5,6,2.2,12.2,8.2,13.7c0.3,0.1,0.5,0.1,0.8,0.2c8.5,1.5,17.2,2.5,25.8,2.9c11.7,0,24.1,0.2,41.6-3.2c8.3-1.6,16.5-3.8,24.5-6.6
	c1.2-0.4,2-1.5,2-2.7c0.4-8.9-2.2-13-8.6-18.5c-2.5-2.1-5.8-2.9-8.9-2.1c-7.1,1.8-14.2,3.2-21.5,4.2c-1,0.2-1.9-0.3-2.5-1
	c-6.8-9.6-9.7-17.9-8.5-39c0.1-1.7,1.4-3,3-3.2c4.7-0.5,9.3-1.2,13.9-2.3c2.2-0.5,3.9-2.3,4.2-4.5c1.2-8-1.7-14.9-6.9-20.1
	c-0.8-0.8-1.9-1.2-3-1c-5.7,1.3-11.4,2.1-17.2,2.4c-7.1,0.3-14.2,0-21.3-0.9c-13.9-1.9-24-6.1-34.9-11.7c-10-5.1-15.1-10-22.4-16.9
	c-9.6-9-13.5-14.7-17.8-21.4c-7.3-11.5-7.4-15-10.5-24.7C170,298,169,297.2,167.9,297.2z"/>
<path class="st0" d="M444.5,313.7c-3,0.2-5.7,2.2-6.7,5c-5.6,17.6-9,26.6-18.2,41.8c-11.4,18.8-21,29.5-37.6,43.9
	c-1.2,1.1-1.6,2.7-1.1,4.2c1.8,4.8,5.8,10.1,10.7,14.1c3.3,2.7,8.2,2.7,11.4-0.1c20.5-18.4,32.4-33,43.9-54
	c6.1-11,11.1-22.6,14.9-34.6c2.6-8.1-1.8-16.9-9.9-19.5c-1.1-0.3-2.2-0.6-3.3-0.7C447.3,313.7,445.9,313.7,444.5,313.7z"/>
</svg>
