<?xml version="1.0" encoding="utf-8"?>
<!-- Generator: Adobe Illustrator 25.1.0, SVG Export Plug-In . SVG Version: 6.00 Build 0)  -->
<svg version="1.1" id="Layer_1" xmlns="http://www.w3.org/2000/svg" xmlns:xlink="http://www.w3.org/1999/xlink" x="0px" y="0px"
	 viewBox="0 0 896.4 896.4" style="enable-background:new 0 0 896.4 896.4;" xml:space="preserve">
<style type="text/css">
	.st0{fill:#939598;stroke:#2E3192;stroke-width:11;stroke-miterlimit:10;}
	.st1{fill:none;stroke:#2E3192;stroke-width:11;stroke-miterlimit:10;}
	.st2{fill:#BE1E2D;}
</style>
<rect x="5.5" y="5.5" class="st0" width="885.4" height="885.4"/>
<line class="st1" x1="215.2" y1="5.5" x2="215.2" y2="890.9"/>
<line class="st1" x1="448.2" y1="5.5" x2="448.2" y2="890.9"/>
<line class="st1" x1="670.6" y1="2.1" x2="670.6" y2="890.9"/>
<line class="st1" x1="8.9" y1="446.5" x2="890.9" y2="446.5"/>
<line class="st1" x1="5.5" y1="231.5" x2="894.4" y2="231.5"/>
<line class="st1" x1="8.9" y1="664.9" x2="890.9" y2="664.9"/>
<path class="st2" d="M448.2,104.8c-189.6,0-343.4,153.7-343.4,343.4s153.7,343.4,343.4,343.4s343.4-153.7,343.4-343.4
	S637.9,104.8,448.2,104.8z M448.2,751.9c-167.7,0-303.7-135.9-303.7-303.7s136-303.7,303.7-303.7s303.7,136,303.7,303.7
	S616,751.9,448.2,751.9z"/>
<circle class="st2" cx="448.2" cy="448.2" r="78.1"/>
<circle class="st2" cx="363.7" cy="205.4" r="26.1"/>
<circle class="st2" cx="670.6" cy="400.6" r="45.2"/>
<circle class="st2" cx="306.7" cy="669.5" r="21.7"/>
<ellipse transform="matrix(0.3163 -0.9487 0.9487 0.3163 -240.2061 533.1227)" class="st2" cx="249.7" cy="433.2" rx="30.4" ry="30.4"/>
<circle class="st2" cx="548.9" cy="625.9" r="20.4"/>
<circle class="st2" cx="539.5" cy="387.6" r="11.3"/>
<path class="st2" d="M579.1,420c-1,0.9-1.5,2.2-1.3,3.5c2.2,11.8,2.8,23.9,1.7,35.8c-1.4,16.8-4,25.3-10.7,41.6
	c-3.6,8.9-9.4,17.5-14.2,24.5c-2.3,3.3-1.7,7.7,1.3,10.3c6.1,5.2,12.5,9.9,19.1,14.3c1.6,1,3.7,0.6,4.8-0.9
	c7.6-10.2,14.2-21.1,19.6-32.5c9.6-19.6,14.1-46.9,14.5-59.6c0.6-12.5-0.2-25.1-2.4-37.4c-0.7-3.6-3.9-6.3-7.6-6.1
	C596,413.8,585.2,414.9,579.1,420z"/>
<path class="st2" d="M525.4,336.5c5.3-6.2,9.4-13.4,12.2-21.1c1.2-3.5-0.1-7.4-3.3-9.4c-5.8-3.4-11.8-6.5-18-9.2
	c-5.5-2.5-11.1-4.7-16.9-6.5c-1.2-0.4-2.3-1.1-3.2-2.1c-6.1-6.7-6.6-16.3,13.5-49c0.8-1.3,2.3-1.9,3.8-1.6c4.3,0.9,10.1,2.9,19,6.5
	c11.4,4.5,22.3,10.1,32.7,16.8c13.3,8.4,25.7,18.2,36.9,29.2c10.3,9.9,15.2,16.5,19.7,21.4c1.1,1.2,2.6,1.9,4.3,2
	c9.5,0.6,21-6.4,25-14.6c1.2-2.5,0.8-5.5-0.9-7.6c-7.5-9.9-15.8-19.2-24.8-27.7c-22.6-21.5-35.8-28.7-48.3-36.6
	c-21.5-13.5-41.2-19.3-54.7-23.3s-28.2-9.6-55.1-10.4c-21.3-0.7-30.1-0.9-38.7,0.8c-2.8,0.6-5.1,2.5-6,5.2c-1.2,3.9-1.5,8-0.9,12
	c1.6,9.5,9.9,16.5,19.6,16.4c8.9-0.3,17.9,0,26.8,0.8c8.6,3,23.8,4.4,3.7,51.5c-0.9,2.2-3.2,3.6-5.6,3.2c-5.5-0.9-14.1-1.5-30.8-0.2
	c-15,1.1-29.7,4.2-43.8,9.4c-15.1,5.3-29.4,13-42.2,22.7c-14.1,10.8-19.5,16.5-23.6,21.5c-9.3,5.7-25.3,6.8-43-30.1
	c-0.8-1.8-0.4-3.8,0.9-5.2c4.6-5.1,10.9-12.5,20-19.7c13.4-10.6,18-13.5,25-18.5c1.5-1.1,2.1-3.1,1.4-4.8
	c-2.8-7.1-10.7-16.5-19-20.6c-2.7-1.3-5.9-1-8.4,0.7c-4.7,3.2-10,7-20,15.1c-9.6,8.1-18.5,16.9-26.6,26.5
	c-11,12.1-20.6,25.3-28.7,39.5c-4.8,7.8-8.9,15.9-12.2,24.4c1.9,7.3,19,24,28.8,20.5c4.9-10.5,8.4-19.5,15.6-30.3
	c0.7-0.9,1.7-1.6,2.8-1.8c20.9-3.1,30.6,14.3,40.2,30.4c0.6,1,0.6,2.2,0.1,3.3c-2.5,5.1-4.1,9.5-6.9,16.3
	c-2.3,5.6-4.6,11.6-6.3,17.3c-0.4,1.2-0.2,2.5,0.4,3.6c5.6,9.2,19.2,13.9,28.9,10.1c1.5-0.6,2.6-1.8,3.1-3.3
	c1.9-5.6,2.7-9.5,6.1-16.7c3.1-6.5,5.4-11.1,14.6-23.9c8.3-11.6,15.5-18,29.2-28.4c6.9-5.3,14.8-9.9,27.2-15c11.8-5,24.4-8,37.2-8.9
	c8.6-0.7,17.2-0.7,25.8,0.2c10,1.1,19.9,3.3,29.4,6.5c9.8,3.5,19.3,8,28.1,13.6C521.5,338.4,523.9,338.1,525.4,336.5z"/>
<path class="st2" d="M317.8,481.8c-7.5-0.4-15.7,1.5-22.5,3.8c-4.5,1.6-7.1,6.4-5.9,11c2,7.2,4.7,14.2,8.2,20.7
	c1.2,2.5,0.7,5.5-1.3,7.5c-25,23.9-33.6,26-45.1,21.1c-1.4-0.6-2.5-1.6-3.1-3c-4.1-8.8-7.6-17.7-10.7-26.9
	c-3.5-11.3-6.1-22.8-7.9-34.4c-0.7-4.6-4.6-8.1-9.3-8.3c-7.4-0.2-14.7,0.3-22,1.6c-2.3,0.4-4,2.5-3.8,4.8c0.8,9.5,3,22.3,9.2,43.6
	c4.8,16.5,10,26.5,13.2,33.5c4.6,10,10,19.3,19.1,32.9c6.2,9.3,10.3,15.5,19.1,25.2c1.2,1.3,3,1.7,4.6,0.9
	c8.4-4.1,14-10.3,18.2-16.8c2.1-3.2,1.9-7.4-0.5-10.4c-3.9-4.4-7.6-9.2-10.8-14.1c-0.8-1.3-0.7-3,0.4-4.1
	c13.8-15.2,22.4-21.7,37.2-25.1c5.1-1.2,10.4,0.8,13.4,5.1c2.8,3.9,5.9,7.6,9.3,11c6.9,6.9,17.8,17.9,29.9,25.8
	c15.6,9.9,32.6,17.2,50.4,21.9c16,4.2,21.6,3.7,30.7,4.2c1.5,0.2,2.7,1.1,3.4,2.4c9.8,24.5,9.9,41.3-0.7,51.3
	c-1.6,1.5-3.9,2.3-6.1,2.2c-7.8-0.5-20.1-2.5-28.2-3.8c-2.1-0.3-4.1,0.8-4.9,2.8c-1.8,4.8-3.3,9.6-4.6,14.5
	c-1.9,7.7,2.8,15.4,10.4,17.3c0,0,0,0,0,0c0.3,0.1,0.7,0.2,1,0.2c10.8,1.8,21.8,3.1,32.8,3.7c14.8,0,30.6,0.3,52.8-4.1
	c10.5-2.1,20.9-4.9,31.1-8.4c1.5-0.5,2.5-1.9,2.5-3.5c0.5-11.3-2.8-16.5-11-23.5c-3.1-2.7-7.3-3.6-11.3-2.6c-9,2.2-18.1,4-27.2,5.3
	c-1.2,0.2-2.5-0.3-3.2-1.3c-8.6-12.2-12.3-22.7-10.8-49.5c0.1-2.1,1.7-3.8,3.8-4.1c5.9-0.6,11.8-1.6,17.6-2.9
	c2.8-0.7,4.9-2.9,5.3-5.8c1.5-10.1-2.2-18.9-8.7-25.5c-1-1-2.4-1.5-3.8-1.2c-7.2,1.6-14.5,2.6-21.9,3c-9,0.4-18.1,0-27-1.2
	c-17.7-2.5-30.4-7.8-44.2-14.8c-12.7-6.5-19.1-12.7-28.4-21.5c-12.2-11.4-17.2-18.7-22.5-27.2c-9.2-14.6-9.5-19-13.3-31.3
	C320.4,482.8,319.2,481.8,317.8,481.8z"/>
<path class="st2" d="M668.7,502.8c-3.8,0.3-7.2,2.7-8.5,6.4c-7.1,22.4-11.4,33.7-23.1,53c-14.4,23.8-26.6,37.4-47.7,55.7
	c-1.5,1.4-2,3.4-1.4,5.4c2.3,6.1,7.4,12.8,13.5,18c4.3,3.4,10.4,3.4,14.5-0.2c26-23.4,41.1-41.9,55.7-68.5c7.7-14,14.1-28.8,19-44
	c3.4-10.3-2.3-21.4-12.6-24.8c-1.4-0.4-2.8-0.7-4.2-0.9C672.1,502.7,670.4,502.7,668.7,502.8z"/>
</svg>
