<?xml version="1.0" encoding="utf-8"?>
<!-- Generator: Adobe Illustrator 25.1.0, SVG Export Plug-In . SVG Version: 6.00 Build 0)  -->
<svg version="1.1" id="Layer_1" xmlns="http://www.w3.org/2000/svg" xmlns:xlink="http://www.w3.org/1999/xlink" x="0px" y="0px"
	 viewBox="0 0 672.5 939" style="enable-background:new 0 0 672.5 939;" xml:space="preserve">
<style type="text/css">
	.st0{fill:#0F2132;}
	.st1{fill:url(#SVGID_1_);}
	.st2{fill:url(#SVGID_2_);}
	.st3{fill:url(#SVGID_3_);}
	.st4{fill:url(#SVGID_4_);}
	.st5{fill:#BE1E2D;}
</style>
<path class="st0" d="M632.2,244.1c5.2-34.2,8.1-43.7,1.3-82.8c-2.7-15.8-8.9-48.8-33.9-81.6c-4.1-5.3-21.9-28-54.1-46.5
	C526.7,22.4,505.2,14.3,462,7.4c-53.7-8.5-94.5-7.9-145-6.8c-44.1,1.2-88.1,5.2-131.8,11.8c-23.2,3.6-40.4,7-60.3,17
	C94.8,44.5,76.5,65.5,66.5,77.1c-11.1,13-26.4,31-35.8,59c-8.8,26.4-7.4,47.8-5.7,77.2c1.8,26.2,6.5,52.1,13.8,77.3
	c8.3,28.6,10,42.4,21.3,58.5c0.7,1.1,17.3,33.1,18.9,37.3c4.8,13-2,18.7-1.9,26.5c0.2,17.5,28.4,35.3,52.1,39.5
	c31.4,5.6,70.9-10.1,85.3-45.2c15.5-37.6-3.8-82.7-25.7-89.6c-9.8-3-20.6,1.3-30.2-7c-6.7-5.9-7.1-14.3-9.4-19.5
	c-9.1-21-14.8-43.3-18.6-76.3c-2.6-23.3-6.8-35.1,2.8-54.3c5.7-10.9,13.9-20.4,23.9-27.6c16.1-12.2,32.6-15.4,40.8-17
	c53.4-9.9,119.3-10.7,119.3-10.7c9.1-0.1,101-1.2,151.9,10.1c8.7,2,23.8,5.9,36.4,18.2c6,6,10.9,13,14.5,20.8
	c2.1,4.4,6,13.8,7.5,33.9c1.8,22.9-1.2,40.2-3.8,55.9c-2.3,14.4-6.3,28.5-12,42c-4.7,11-8.4,16.6-13.8,20.8c-9,6.9-17.3,6-23.9,8
	c-22.2,6.7-46.5,52.7-28.3,91.8c15.3,32.7,52.4,43.1,79.2,39.5c23.8-3.1,44.5-4,53.4-35.1c10.8-37.7,17.6-53,27.3-75
	C614.9,315.7,624.8,291.7,632.2,244.1z"/>
<radialGradient id="SVGID_1_" cx="-477.343" cy="2142.5356" r="408.94" gradientTransform="matrix(0.9 0.44 0.38 -0.79 -367.44 1959.9501)" gradientUnits="userSpaceOnUse">
	<stop  offset="4.000000e-02" style="stop-color:#334E65"/>
	<stop  offset="0.11" style="stop-color:#2D475D"/>
	<stop  offset="0.35" style="stop-color:#1C3146"/>
	<stop  offset="0.58" style="stop-color:#112437"/>
	<stop  offset="0.78" style="stop-color:#0F2132"/>
</radialGradient>
<path class="st1" d="M476.5,9.9c-45.9-6.6-83.7-9.5-149-9.9c-99.1-0.4-125,8.9-142.3,12.4c-42.1,8.4-60.6,16.5-76.1,26
	c-25.2,15.9-46.2,37.5-61.5,63c-9.4,15.5-16.5,32.3-21,49.9c-6.2,25.7-3.5,48.2,2,93.1c2.7,24,8.3,47.6,16.9,70.2
	c7.5,19.4,13.7,28.9,24.2,33.5c10.1,4.4,24.6,4.5,32.5-3.2c8.2-8.1,6.1-21.7,4.3-34.7c0,0-6.1-44.8-9.8-101.9
	c-2.1-32.4-3-48.5,3.2-66.2c12.7-35.2,42-54.1,54.2-61.8c27.7-17.3,52.6-20.5,91.1-25c14.6-1.7,26.4-2.3,122.5,0
	c56.6,1.4,85,2.1,90.1,3.2c31,7.2,58.4,20.7,85.7,9.7c4.1-1.7,16.2-6.5,17.3-15.2c0.5-4.3-1.6-10-11.6-17.8
	C520.2,12.4,476.5,9.9,476.5,9.9z"/>
<radialGradient id="SVGID_2_" cx="-273.3988" cy="2313.3398" r="318.79" gradientTransform="matrix(0.83 0.56 0.52 -0.76 -517.17 2132.6899)" gradientUnits="userSpaceOnUse">
	<stop  offset="0.22" style="stop-color:#355067"/>
	<stop  offset="0.31" style="stop-color:#253D52"/>
	<stop  offset="0.41" style="stop-color:#172D40"/>
	<stop  offset="0.51" style="stop-color:#102336"/>
	<stop  offset="0.63" style="stop-color:#0F2132"/>
</radialGradient>
<path class="st2" d="M499.2,130.4c12.8,7.4,20.3,22.2,23.4,31.4c7,21.4,6.6,29.6,5,56.7c-1.5,21.3-6,42.3-13.3,62.4
	c-6.8,18.6-12.2,25.3-19.3,28.3c-8.9,3.8-17,4-19.6,8.9c-1.4,2.6-0.3,7.1,6.3,15.2c8.6,10.6,14.1,15,24.1,24.1
	c14.6,13.3,20.7,22.9,37.8,24.1c4.5,0.3,15.2,1,24.5-5.2c10.5-7.1,16.2-16,21.5-31.9c5.7-17,10.3-26.4,16-51.2
	c9.1-38.5,12.2-69.8,11.6-94.1c-0.8-36.2-1.2-54.3-12.6-72.8c-14.4-23.2-36.3-33.5-51.4-40.7c-21.2-9.8-43.9-16.1-67.1-18.7
	c-13.4-1.5-44.2-7.7-49.4,6.5c-2.7,7.4,2.5,36.3,10.3,38.1C455.4,113.4,479,118.4,499.2,130.4z"/>
<path class="st0" d="M312.9,286.8c-70.1,4.4-119.9,28.7-130.8,34.3C60,382.8,20,506,15,522.5c-30.6,99.8-10.7,199.2,27,263.7
	c0,0,19.8,49.7,94.1,108.5c6.3,4.9,26,19.7,28,20.9c11,6.4,28.1,15.4,39.3,16.9c50.9,6.8,79.2,6.3,135.6,6.5
	c60.7,0.2,100.9,0.9,136.4-7.5c13.3-3.1,31.1-15.7,51.8-30c7.9-5.5,20.4-17.1,22.3-18.7c33.9-29.7,43.1-44.6,65.7-76
	c40.3-56.1,89.8-191.3,28-327.6C593,368,493.9,322.8,464.7,310.9C447.1,303.6,389.6,282,312.9,286.8z"/>
<radialGradient id="SVGID_3_" cx="378.8918" cy="1160.9929" r="330.86" fx="260.3406" fy="1030.2456" gradientTransform="matrix(0.99 -0.15 -0.14 -0.95 39.99 1711.65)" gradientUnits="userSpaceOnUse">
	<stop  offset="1.559200e-02" style="stop-color:#324C63"/>
	<stop  offset="0.7409" style="stop-color:#0F2132"/>
</radialGradient>
<path class="st3" d="M387.2,286.1c-16-2.6-73.1-5.2-131.9,9.1c-21.6,4.9-42.7,12-63,21c-66.2,29.5-99.8,75.3-108.2,84.9
	c-7.3,8.4-34.6,36.7-54,80.4c-5.7,12.8-29.3,62.1-30,134.9C-0.4,667.8,8,706,17.4,731.3c30.9,82.8,41.7,82.6,64.2,94.8
	c19.2,10.4,47.8-5.1,74.1-17.6c101.1-47.7,130.5-74.5,150-88.5c86-61.5,156.7-144,175.8-179c22.8-41.7,27.6-101.1,22.6-167
	c-1.9-25-20.6-54.7-26.6-57.9C453.8,303.8,418.1,291.2,387.2,286.1z"/>
<radialGradient id="SVGID_4_" cx="135.45" cy="1340.21" r="240" fx="282.4095" fy="1467.0464" gradientTransform="matrix(1 0 0 -1 206 1956)" gradientUnits="userSpaceOnUse">
	<stop  offset="0.17" style="stop-color:#2A4056"/>
	<stop  offset="0.91" style="stop-color:#0F2132"/>
</radialGradient>
<circle class="st4" cx="341.5" cy="615.8" r="176.8"/>
<path class="st5" d="M342.5,455.1c-88.7,0-160.7,71.9-160.7,160.7s71.9,160.7,160.7,160.7s160.7-71.9,160.7-160.7
	S431.2,455.1,342.5,455.1L342.5,455.1z M342.5,757.9c-78.5,0-142.1-63.6-142.1-142.1S264,473.7,342.5,473.7s142.1,63.6,142.1,142.1
	S421,757.9,342.5,757.9L342.5,757.9z"/>
<circle class="st5" cx="342.5" cy="615.8" r="36.5"/>
<circle class="st5" cx="302.9" cy="502.1" r="12.2"/>
<circle class="st5" cx="446.5" cy="593.5" r="21.2"/>
<circle class="st5" cx="276.3" cy="719.3" r="10.2"/>
<ellipse transform="matrix(0.1602 -0.9871 0.9871 0.1602 -391.2626 757.6259)" class="st5" cx="249.6" cy="608.8" rx="14.2" ry="14.2"/>
<circle class="st5" cx="389.6" cy="698.9" r="9.6"/>
<circle class="st5" cx="385.2" cy="587.4" r="5.3"/>
<path class="st5" d="M403.8,602.6c-0.5,0.4-0.7,1-0.6,1.7c1.1,5.5,1.3,11.2,0.8,16.8c-0.7,7.8-1.9,11.8-5,19.5
	c-1.8,4.1-4.1,7.9-6.7,11.5c-1.1,1.5-0.8,3.6,0.6,4.8c2.9,2.4,5.9,4.7,9,6.7c0.7,0.5,1.7,0.3,2.2-0.4c3.5-4.8,6.6-9.9,9.1-15.2
	c4.5-9.2,6.6-22,6.8-27.9c0.3-5.9-0.1-11.8-1.1-17.6c-0.3-1.7-1.8-2.9-3.5-2.9C411.6,599.7,406.6,600.2,403.8,602.6z"/>
<path class="st5" d="M378.6,563.5c2.5-2.9,4.4-6.2,5.7-9.8c0.6-1.7-0.1-3.5-1.5-4.4c-2.7-1.6-5.5-3.1-8.4-4.3
	c-2.6-1.2-5.2-2.2-7.9-3c-0.6-0.2-1.1-0.5-1.5-1c-2.9-3.1-3.1-7.6,6.3-22.9c0.4-0.6,1.1-0.9,1.8-0.8c3,0.8,6,1.8,8.9,3
	c5.3,2.1,10.4,4.7,15.3,7.8c6.2,4,12,8.5,17.3,13.7c3.2,3.2,6.3,6.5,9.2,10c0.5,0.6,1.2,0.9,2,1c4.4,0.3,9.8-3,11.7-6.8
	c0.5-1.2,0.4-2.6-0.4-3.6c-3.5-4.7-7.4-9-11.6-13c-10.6-10.1-16.7-13.4-22.6-17.1c-10-6.3-19.3-9-25.6-10.9s-13.2-4.5-25.8-4.9
	c-10-0.3-14.1-0.4-18.1,0.4c-1.3,0.3-2.4,1.2-2.8,2.4c-0.6,1.8-0.7,3.8-0.4,5.6c0.7,4.5,4.6,7.7,9.1,7.7c4.2-0.1,8.4,0,12.5,0.4
	c4,1.4,11.1,2.1,1.8,24.1c-0.4,1-1.5,1.6-2.6,1.4c-2.6-0.4-6.6-0.7-14.4-0.1c-7,0.5-13.9,2-20.5,4.4c-7.1,2.5-13.7,6.1-19.7,10.6
	c-6.6,5-9.1,7.7-11.1,10.1c-4.4,2.7-11.8,3.2-20.1-14.1c-0.4-0.8-0.2-1.8,0.4-2.5c2.9-3.3,6-6.4,9.4-9.2c6.3-5,8.5-6.3,11.7-8.7
	c0.7-0.5,1-1.4,0.6-2.2c-1.8-4.1-5-7.5-8.9-9.7c-1.3-0.6-2.8-0.5-3.9,0.3c-2.2,1.5-4.7,3.3-9.4,7.1c-4.5,3.8-8.6,7.9-12.4,12.4
	c-5.2,5.6-9.7,11.8-13.5,18.5c-2.2,3.6-4.1,7.5-5.7,11.4c0.9,3.4,8.9,11.2,13.4,9.6c2.3-4.9,3.9-9.1,7.3-14.2
	c0.3-0.4,0.8-0.7,1.3-0.8c9.8-1.5,14.3,6.7,18.8,14.2c0.3,0.5,0.3,1,0.1,1.5c-1.2,2.4-1.9,4.5-3.2,7.6c-1.1,2.6-2.2,5.4-3,8.1
	c-0.2,0.6-0.1,1.2,0.2,1.7c2.6,4.3,9,6.5,13.5,4.8c0.7-0.3,1.2-0.8,1.4-1.5c0.8-2.7,1.7-5.3,2.9-7.8c1.9-4,4.2-7.7,6.8-11.2
	c3.9-5.4,7.3-8.4,13.6-13.3c8.9-6.4,19.3-10.3,30.2-11.2c4-0.4,8.1-0.3,12.1,0.1c4.7,0.5,9.3,1.5,13.8,3c4.6,1.6,9,3.8,13.2,6.3
	C376.7,564.3,377.9,564.2,378.6,563.5z"/>
<path class="st5" d="M281.4,631.5c-3.6,0-7.1,0.6-10.5,1.8c-2.1,0.7-3.3,3-2.8,5.1c0.9,3.4,2.2,6.6,3.8,9.7c0.5,1.2,0.3,2.6-0.6,3.5
	c-11.7,11.2-15.7,12.2-21.1,9.9c-0.6-0.3-1.1-0.8-1.4-1.4c-1.9-4.1-3.6-8.3-5-12.5c-1.6-5.3-2.9-10.6-3.7-16.1
	c-0.4-2.2-2.2-3.8-4.3-3.9c-3.4-0.1-6.9,0.2-10.3,0.8c-1.1,0.2-1.8,1.2-1.8,2.3c0.4,4.5,1.4,10.4,4.3,20.4
	c1.6,5.4,3.7,10.6,6.2,15.7c2.6,5.4,5.6,10.5,9,15.3c2.6,4.2,5.6,8.1,8.9,11.8c0.5,0.6,1.4,0.8,2.2,0.4c3.5-1.8,6.5-4.5,8.5-7.8
	c1-1.5,0.9-3.5-0.2-4.9c-1.8-2.1-3.5-4.3-5.1-6.6c-0.4-0.6-0.3-1.4,0.2-1.9c6.5-7.1,10.5-10.1,17.4-11.8c2.4-0.6,4.9,0.4,6.3,2.4
	c1.3,1.8,2.7,3.6,4.3,5.1c3.2,3.2,8.3,8.4,14,12.1c7.3,4.6,15.3,8.1,23.6,10.2c7.5,2,10.1,1.7,14.4,2c0.7,0.1,1.3,0.5,1.6,1.1
	c4.6,11.4,4.6,19.3-0.3,24c-0.8,0.7-1.8,1.1-2.9,1c-3.6-0.2-9.4-1.2-13.2-1.8c-1-0.2-1.9,0.4-2.3,1.3c-0.8,2.2-1.6,4.5-2.1,6.8
	c-0.9,3.6,1.3,7.2,4.9,8.1c0.1,0,0.3,0.1,0.4,0.1c5,0.9,10.1,1.4,15.2,1.7c6.9,0,14.3,0.1,24.7-1.9c4.9-1,9.8-2.3,14.5-3.9
	c0.7-0.2,1.2-0.9,1.2-1.6c0.2-5.3-1.3-7.7-5.1-11c-1.5-1.2-3.4-1.7-5.3-1.2c-4.2,1-8.5,1.9-12.7,2.5c-0.6,0.1-1.1-0.2-1.5-0.6
	c-4-5.7-5.8-10.6-5-23.1c0.1-1,0.8-1.8,1.8-1.9c2.8-0.3,5.5-0.7,8.2-1.3c1.3-0.3,2.3-1.4,2.5-2.7c0.7-4.4-0.8-8.9-4.1-12
	c-0.5-0.5-1.1-0.7-1.8-0.6c-3.4,0.7-6.8,1.2-10.2,1.4c-4.2,0.2-8.4,0-12.6-0.5c-8.3-1.2-14.3-3.7-20.7-6.9c-6-3-9-6-13.3-10
	c-4.1-3.7-7.7-8-10.5-12.7c-4.3-6.8-4.4-8.9-6.2-14.6C282.7,631.9,282.1,631.5,281.4,631.5z"/>
<path class="st5" d="M445.7,641.3c-1.8,0.1-3.4,1.3-4,3c-3.3,10.5-5.4,15.8-10.8,24.8c-6.7,11.2-12.4,17.5-22.3,26.1
	c-0.7,0.6-0.9,1.6-0.7,2.5c1.4,3.3,3.6,6.2,6.3,8.4c2,1.6,4.8,1.6,6.8-0.1c12.2-10.9,19.2-19.6,26.1-32c3.6-6.6,6.6-13.4,8.9-20.6
	c1.6-4.8-1.1-10-5.9-11.6c-0.6-0.2-1.3-0.3-2-0.4C447.3,641.3,446.5,641.3,445.7,641.3z"/>
</svg>
